<svg width="36" height="36" viewBox="0 0 36 36" fill="none" xmlns="http://www.w3.org/2000/svg">
<path d="M17.75 0.839355C8.08591 0.839355 0.249969 8.87842 0.249969 18.7847C0.249969 26.7144 5.26559 33.4331 12.2187 35.8081C12.3162 35.8293 12.4158 35.8398 12.5156 35.8394C13.164 35.8394 13.414 35.3628 13.414 34.9487C13.414 34.519 13.3984 33.394 13.3906 31.894C12.8117 32.0297 12.2195 32.1005 11.625 32.105C8.25778 32.105 7.49216 29.4878 7.49216 29.4878C6.69528 27.4175 5.54684 26.8628 5.54684 26.8628C4.02341 25.7925 5.53903 25.7612 5.65622 25.7612H5.66403C7.42184 25.9175 8.34372 27.6206 8.34372 27.6206C9.21872 29.1519 10.3906 29.5815 11.4375 29.5815C12.1297 29.5677 12.8112 29.408 13.4375 29.1128C13.5937 27.9565 14.0468 27.1675 14.5468 26.7144C10.664 26.2612 6.57809 24.7222 6.57809 17.8472C6.57809 15.8862 7.25778 14.2847 8.37497 13.0347C8.19528 12.5815 7.59372 10.7534 8.54684 8.28467C8.67469 8.25408 8.8061 8.24094 8.93747 8.24561C9.57028 8.24561 11 8.48779 13.3593 10.1284C16.2262 9.32632 19.2581 9.32632 22.125 10.1284C24.4843 8.48779 25.914 8.24561 26.5468 8.24561C26.6782 8.24094 26.8096 8.25408 26.9375 8.28467C27.8906 10.7534 27.289 12.5815 27.1093 13.0347C28.2265 14.2925 28.9062 15.894 28.9062 17.8472C28.9062 24.7378 24.8125 26.2534 20.914 26.6987C21.539 27.2534 22.1015 28.3472 22.1015 30.019C22.1015 32.4175 22.0781 34.355 22.0781 34.9409C22.0781 35.3628 22.3203 35.8394 22.9687 35.8394C23.0737 35.8398 23.1784 35.8293 23.2812 35.8081C30.2422 33.4331 35.25 26.7065 35.25 18.7847C35.25 8.87842 27.414 0.839355 17.75 0.839355Z" fill="black"/>
</svg>
