<svg width="41" height="41" viewBox="0 0 41 41" fill="none" xmlns="http://www.w3.org/2000/svg">
<path opacity="0.5" d="M35.1433 13.446C35.1307 12.2856 34.9181 11.136 34.515 10.0477C34.222 9.25254 33.7544 8.53322 33.1466 7.94269C32.556 7.33544 31.8367 6.86841 31.0416 6.57602C29.9532 6.17341 28.8038 5.96033 27.6433 5.94602C25.7133 5.85936 25.135 5.83936 20.25 5.83936C15.3666 5.83936 14.785 5.85602 12.8566 5.94602C11.6962 5.95867 10.5466 6.17122 9.4583 6.57436C8.66289 6.86682 7.94347 7.33448 7.3533 7.94269C6.74702 8.53476 6.28017 9.2544 5.98664 10.0494C5.58428 11.1373 5.3712 12.2861 5.35664 13.446C5.26997 15.3777 5.24997 15.956 5.24997 20.841C5.24997 25.726 5.26664 26.306 5.35664 28.2344C5.36982 29.3949 5.58294 30.5445 5.98664 31.6327C6.2783 32.426 6.74664 33.146 7.35497 33.7344C7.94569 34.3423 8.66492 34.8104 9.45997 35.1044C10.5466 35.5077 11.6966 35.721 12.8566 35.7327C14.785 35.8227 15.3666 35.8394 20.25 35.8394C25.1333 35.8394 25.7166 35.8227 27.6433 35.7327C28.8038 35.7201 29.9534 35.5075 31.0416 35.1044C31.8308 34.8002 32.5476 34.3342 33.1458 33.7362C33.744 33.1383 34.2104 32.4218 34.515 31.6327C34.9173 30.5436 35.1299 29.3936 35.1433 28.2327C35.2333 26.306 35.25 25.726 35.25 20.8394C35.25 15.9527 35.2333 15.376 35.1433 13.446Z" fill="black"/>
<path d="M29.905 13.536C29.6991 13.0019 29.3836 12.5169 28.9789 12.1121C28.5741 11.7074 28.0891 11.3919 27.555 11.186C26.8182 10.9137 26.0404 10.7694 25.255 10.7594C23.9483 10.6994 23.555 10.686 20.25 10.686C16.945 10.686 16.5533 10.6994 15.25 10.7594C14.4646 10.7678 13.6865 10.9116 12.95 11.1844C11.8683 11.601 11.0166 12.4544 10.6 13.5344C10.3266 14.2727 10.1833 15.051 10.1733 15.8344C10.1133 17.141 10.1016 17.5327 10.1016 20.8394C10.1016 24.146 10.1133 24.5394 10.1733 25.8444C10.1816 26.6294 10.3266 27.4077 10.5983 28.1444C10.8043 28.6784 11.1198 29.1634 11.5245 29.5682C11.9293 29.9729 12.4143 30.2884 12.9483 30.4944C13.6866 30.766 14.465 30.911 15.2483 30.9194C16.5533 30.9794 16.945 30.991 20.2516 30.991C23.5583 30.991 23.9516 30.9794 25.2566 30.9194C26.0421 30.9103 26.8202 30.7659 27.5566 30.4927C28.0907 30.2867 28.5757 29.9712 28.9804 29.5665C29.3852 29.1617 29.7007 28.6767 29.9066 28.1427C30.18 27.4077 30.3233 26.6294 30.3333 25.8427C30.3933 24.5377 30.405 24.146 30.405 20.8394C30.405 17.5327 30.3933 17.141 30.3333 15.836C30.3242 15.0506 30.1799 14.2725 29.9066 13.536H29.905ZM20.25 27.1977C19.415 27.1977 18.5882 27.0332 17.8167 26.7137C17.0453 26.3942 16.3444 25.9258 15.754 25.3354C15.1635 24.745 14.6952 24.044 14.3756 23.2726C14.0561 22.5012 13.8916 21.6744 13.8916 20.8394C13.8916 20.0044 14.0561 19.1776 14.3756 18.4061C14.6952 17.6347 15.1635 16.9338 15.754 16.3433C16.3444 15.7529 17.0453 15.2846 17.8167 14.965C18.5882 14.6455 19.415 14.481 20.25 14.481C21.9363 14.481 23.5536 15.1509 24.746 16.3433C25.9384 17.5358 26.6083 19.153 26.6083 20.8394C26.6083 22.5257 25.9384 24.143 24.746 25.3354C23.5536 26.5278 21.9363 27.1977 20.25 27.1977ZM26.86 15.7144C26.4745 15.7015 26.1092 15.5393 25.8411 15.262C25.573 14.9848 25.4231 14.6142 25.4231 14.2285C25.4231 13.8429 25.573 13.4723 25.8411 13.195C26.1092 12.9178 26.4745 12.7556 26.86 12.7427C27.2455 12.7545 27.613 12.9156 27.8819 13.1921C28.1509 13.4686 28.3018 13.8388 28.3029 14.2245C28.304 14.6102 28.1551 14.9812 27.8877 15.2592C27.6204 15.5372 27.2554 15.7004 26.87 15.7144H26.86Z" fill="black"/>
<path d="M20.25 16.7109C19.4335 16.7109 18.6353 16.9531 17.9564 17.4067C17.2775 17.8603 16.7484 18.5051 16.4359 19.2594C16.1234 20.0138 16.0417 20.8439 16.201 21.6447C16.3603 22.4455 16.7534 23.1811 17.3308 23.7584C17.9082 24.3358 18.6438 24.729 19.4446 24.8883C20.2454 25.0476 21.0755 24.9658 21.8298 24.6534C22.5842 24.3409 23.2289 23.8118 23.6826 23.1328C24.1362 22.4539 24.3783 21.6558 24.3783 20.8393C24.3783 19.7447 23.9436 18.6949 23.1697 17.9207C22.3959 17.1465 21.3463 16.7114 20.2516 16.7109H20.25Z" fill="black"/>
<path d="M36.8 12.6229C36.785 11.3342 36.5482 10.0578 36.1 8.84952C35.7739 7.96612 35.2539 7.16708 34.5783 6.51118C33.9225 5.83541 33.1234 5.31541 32.24 4.98952C31.0309 4.54227 29.7541 4.30551 28.465 4.28952C26.32 4.19618 25.6783 4.17285 20.25 4.17285C14.825 4.17285 14.18 4.19285 12.0366 4.28952C10.7475 4.30515 9.47065 4.54192 8.26164 4.98952C7.37776 5.31459 6.57851 5.8347 5.92331 6.51118C5.24884 7.16805 4.72905 7.96681 4.40164 8.84952C3.95446 10.0586 3.7177 11.3354 3.70164 12.6245C3.60664 14.7695 3.58331 15.4129 3.58331 20.8412C3.58331 26.2695 3.60331 26.9129 3.70164 29.0562C3.71831 30.3445 3.95331 31.6229 4.40164 32.8312C4.72664 33.7145 5.24664 34.5145 5.92164 35.1679C6.57793 35.843 7.37686 36.3629 8.25997 36.6895C9.46874 37.138 10.7458 37.3748 12.035 37.3895C14.1783 37.4879 14.8233 37.5062 20.25 37.5062C25.6783 37.5062 26.3216 37.4862 28.4666 37.3895C29.7553 37.3746 31.0317 37.1378 32.24 36.6895C33.117 36.3514 33.9136 35.8335 34.5784 35.169C35.2432 34.5045 35.7615 33.7081 36.1 32.8312C36.5466 31.6212 36.7833 30.3445 36.8 29.0562C36.8966 26.9112 36.9166 26.2662 36.9166 20.8395C36.9166 15.4112 36.8966 14.7695 36.8 12.6229ZM32.5583 25.9445C32.5386 26.9721 32.3442 27.9888 31.9833 28.9512C31.6651 29.7738 31.1786 30.5208 30.5549 31.1445C29.9313 31.7681 29.1842 32.2546 28.3616 32.5729C27.3997 32.933 26.3836 33.1275 25.3566 33.1479C24.035 33.2095 23.6133 33.2229 20.25 33.2229C16.8866 33.2229 16.4666 33.2079 15.145 33.1479C14.118 33.1274 13.1019 32.933 12.14 32.5729C11.317 32.2549 10.5696 31.7685 9.94566 31.1448C9.3217 30.5212 8.83495 29.774 8.51664 28.9512C8.15626 27.9887 7.96183 26.9721 7.94164 25.9445C7.88331 24.6245 7.86664 24.2029 7.86664 20.8395C7.86664 17.4762 7.88164 17.0545 7.94164 15.7345C7.96183 14.707 8.15626 13.6903 8.51664 12.7279C8.83486 11.905 9.32158 11.1578 9.94555 10.5341C10.5695 9.9104 11.317 9.42403 12.14 9.10618C13.1019 8.74599 14.118 8.55156 15.145 8.53118C16.4666 8.46952 16.89 8.45618 20.2516 8.45618C23.6133 8.45618 24.035 8.47118 25.3566 8.53118C26.3842 8.55112 27.4009 8.74555 28.3633 9.10618C29.1856 9.4246 29.9323 9.91121 30.5556 10.5349C31.179 11.1585 31.6653 11.9054 31.9833 12.7279C32.345 13.6912 32.5383 14.7062 32.5583 15.7345C32.6183 17.0545 32.6333 17.4762 32.6333 20.8395C32.6333 24.2029 32.6183 24.6229 32.5583 25.9445Z" fill="black"/>
</svg>
