<svg width="40" height="41" viewBox="0 0 40 41" fill="none" xmlns="http://www.w3.org/2000/svg">
<path d="M35.5556 0.839355C36.7343 0.839355 37.8648 1.30761 38.6983 2.1411C39.5318 2.9746 40 4.10506 40 5.2838V36.3949C40 37.5737 39.5318 38.7041 38.6983 39.5376C37.8648 40.3711 36.7343 40.8394 35.5556 40.8394H4.44448C3.26574 40.8394 2.13527 40.3711 1.30178 39.5376C0.468283 38.7041 3.05176e-05 37.5737 3.05176e-05 36.3949V5.2838C3.05176e-05 4.10506 0.468283 2.9746 1.30178 2.1411C2.13527 1.30761 3.26574 0.839355 4.44448 0.839355H35.5556ZM34.4445 35.2838V23.506C34.4445 21.5847 33.6812 19.742 32.3226 18.3834C30.964 17.0248 29.1214 16.2616 27.2 16.2616C25.3111 16.2616 23.1111 17.4171 22.0445 19.1505V16.6838H15.8445V35.2838H22.0445V24.3282C22.0445 22.6171 23.4223 21.2171 25.1334 21.2171C25.9585 21.2171 26.7498 21.5449 27.3333 22.1284C27.9167 22.7118 28.2445 23.5031 28.2445 24.3282V35.2838H34.4445ZM8.62225 13.1949C9.6124 13.1949 10.562 12.8016 11.2621 12.1014C11.9623 11.4013 12.3556 10.4517 12.3556 9.46158C12.3556 7.39491 10.6889 5.70602 8.62225 5.70602C7.62622 5.70602 6.67098 6.1017 5.96667 6.806C5.26237 7.5103 4.8667 8.46554 4.8667 9.46158C4.8667 11.5282 6.55559 13.1949 8.62225 13.1949ZM11.7111 35.2838V16.6838H5.55559V35.2838H11.7111Z" fill="black"/>
</svg>
