<svg width="38" height="31" viewBox="0 0 38 31" fill="none" xmlns="http://www.w3.org/2000/svg">
<path d="M37.75 4.39406C36.3434 5.00527 34.855 5.40795 33.3321 5.58937C34.9326 4.65216 36.1362 3.16325 36.7172 1.40187C35.204 2.28671 33.5512 2.90755 31.8297 3.23781C31.1048 2.47806 30.2329 1.87367 29.2672 1.46136C28.3014 1.04904 27.2619 0.837428 26.2118 0.839369C21.9602 0.839369 18.5196 4.22999 18.5196 8.40968C18.5165 8.99106 18.5832 9.57071 18.718 10.1362C15.6693 9.99332 12.684 9.21561 9.95314 7.85285C7.22225 6.49009 4.80588 4.57231 2.85862 2.22218C2.17548 3.37384 1.8142 4.68784 1.81253 6.02687C1.81253 8.65187 3.18206 10.9722 5.25003 12.3316C4.02482 12.3025 2.82471 11.9782 1.75159 11.3862V11.48C1.75159 15.1519 4.40784 18.2066 7.92347 18.9019C7.26236 19.0781 6.5811 19.1674 5.89691 19.1675C5.41142 19.1683 4.92704 19.1212 4.45081 19.0269C5.42816 22.0347 8.27269 24.2222 11.6422 24.2847C8.90423 26.3948 5.5427 27.5353 2.08597 27.5269C1.47239 27.526 0.859379 27.4894 0.250031 27.4175C3.76658 29.663 7.85428 30.8507 12.0266 30.8394C26.1953 30.8394 33.936 19.3003 33.936 9.29249C33.936 8.96437 33.9274 8.63624 33.9118 8.31593C35.4142 7.24723 36.7139 5.91914 37.75 4.39406Z" fill="black"/>
</svg>
