<svg width="36" height="36" viewBox="0 0 36 36" fill="none" xmlns="http://www.w3.org/2000/svg">
<path fill-rule="evenodd" clip-rule="evenodd" d="M30.1508 5.92537C28.5328 4.30668 26.6107 3.02398 24.4951 2.15112C22.3794 1.27826 20.112 0.832475 17.8234 0.839436C8.21872 0.839436 0.399969 8.61912 0.396063 18.1832C0.391814 21.2286 1.19458 24.2208 2.72263 26.8551L0.249969 35.8394L9.48825 33.4277C12.0455 34.8131 14.908 35.5381 17.8164 35.5371H17.8234C27.4273 35.5371 35.2453 27.7566 35.25 18.1933C35.2558 15.9125 34.808 13.6533 33.9325 11.5472C33.0571 9.44107 31.7716 7.53006 30.1508 5.92537ZM17.8234 32.6097H17.8172C15.2245 32.6105 12.679 31.9167 10.4453 30.6004L9.91638 30.2879L4.43434 31.7191L5.89763 26.3996L5.55309 25.8527C4.1034 23.5575 3.33532 20.8979 3.33825 18.1832C3.33825 10.2355 9.83903 3.76912 17.8289 3.76912C21.6617 3.76228 25.3403 5.27813 28.0555 7.98328C30.7708 10.6884 32.3003 14.3613 32.3078 18.1941C32.3047 26.1426 25.807 32.6097 17.8234 32.6097ZM25.7679 21.8137C25.3328 21.5965 23.1898 20.548 22.7929 20.4035C22.3961 20.259 22.1031 20.1863 21.8133 20.6207C21.5234 21.0551 20.6882 22.0269 20.4343 22.3199C20.1804 22.6129 19.9265 22.6449 19.4914 22.4277C19.0562 22.2105 17.6523 21.7535 15.989 20.2769C14.6945 19.1277 13.8211 17.709 13.5672 17.2754C13.3133 16.8418 13.5398 16.6066 13.7578 16.391C13.9539 16.1965 14.1929 15.8847 14.4109 15.6316C14.6289 15.3785 14.7015 15.1972 14.8461 14.9082C14.9906 14.6191 14.9187 14.366 14.8101 14.1496C14.7015 13.9332 13.8304 11.7996 13.4679 10.9316C13.114 10.0863 12.7554 10.2012 12.4883 10.1879C12.2343 10.1754 11.9414 10.1722 11.6531 10.1722C11.4327 10.178 11.2159 10.2291 11.0161 10.3224C10.8164 10.4157 10.638 10.5491 10.4922 10.7144C10.0929 11.1488 8.96794 12.1988 8.96794 14.3301C8.96794 16.4613 10.5304 18.5238 10.7461 18.8129C10.9617 19.1019 13.8164 23.4793 18.1843 25.3566C18.9954 25.704 19.8242 26.0086 20.6672 26.2691C21.7101 26.5988 22.6593 26.5527 23.4093 26.441C24.2461 26.3168 25.9875 25.3926 26.3492 24.3801C26.7109 23.3676 26.7117 22.5004 26.6031 22.3199C26.4945 22.1394 26.2039 22.0301 25.7679 21.8137Z" fill="black"/>
</svg>
