<svg width="150" height="113" viewBox="0 0 150 113" fill="none" xmlns="http://www.w3.org/2000/svg">
<g filter="url(#filter0_d_14_250)">
<rect x="4" y="0.643066" width="142" height="104" rx="20" fill="black" fill-opacity="0.13" shape-rendering="crispEdges"/>
<path d="M32.0469 21.7681C32.8594 21.7681 33.5508 22.0571 34.1211 22.6353C34.6992 23.2056 34.9883 23.897 34.9883 24.7095C34.9883 25.522 34.6992 26.2173 34.1211 26.7954C33.5508 27.3657 32.8594 27.6509 32.0469 27.6509C31.2344 27.6509 30.5391 27.3657 29.9609 26.7954C29.3906 26.2173 29.1055 25.522 29.1055 24.7095C29.1055 23.897 29.3906 23.2056 29.9609 22.6353C30.5312 22.0571 31.2266 21.7681 32.0469 21.7681ZM64.4492 16.3892L64.8125 21.7915H64.4492C63.9648 20.1743 63.2734 19.0103 62.375 18.2993C61.4766 17.5884 60.3984 17.2329 59.1406 17.2329C58.0859 17.2329 57.1328 17.5024 56.2812 18.0415C55.4297 18.5728 54.7578 19.4243 54.2656 20.5962C53.7812 21.7681 53.5391 23.2251 53.5391 24.9673C53.5391 26.4048 53.7695 27.6509 54.2305 28.7056C54.6914 29.7603 55.3828 30.5688 56.3047 31.1313C57.2344 31.6938 58.293 31.9751 59.4805 31.9751C60.5117 31.9751 61.4219 31.7563 62.2109 31.3188C63 30.8735 63.8672 29.9946 64.8125 28.6821L65.1758 28.9165C64.3789 30.3306 63.4492 31.3657 62.3867 32.022C61.3242 32.6782 60.0625 33.0063 58.6016 33.0063C55.9688 33.0063 53.9297 32.0298 52.4844 30.0767C51.4062 28.6235 50.8672 26.9126 50.8672 24.9438C50.8672 23.3579 51.2227 21.9009 51.9336 20.5728C52.6445 19.2446 53.6211 18.2173 54.8633 17.4907C56.1133 16.7563 57.4766 16.3892 58.9531 16.3892C60.1016 16.3892 61.2344 16.6704 62.3516 17.2329C62.6797 17.4048 62.9141 17.4907 63.0547 17.4907C63.2656 17.4907 63.4492 17.4165 63.6055 17.2681C63.8086 17.0571 63.9531 16.7642 64.0391 16.3892H64.4492ZM69.3125 21.5688C69.6719 21.5688 69.9766 21.6938 70.2266 21.9438C70.4844 22.1938 70.6133 22.4985 70.6133 22.8579C70.6133 23.2173 70.4844 23.5259 70.2266 23.7837C69.9766 24.0337 69.6719 24.1587 69.3125 24.1587C68.9531 24.1587 68.6445 24.0337 68.3867 23.7837C68.1367 23.5259 68.0117 23.2173 68.0117 22.8579C68.0117 22.4985 68.1367 22.1938 68.3867 21.9438C68.6445 21.6938 68.9531 21.5688 69.3125 21.5688ZM67.6719 36.6392V36.1235C68.4766 35.8579 69.0977 35.4438 69.5352 34.8813C69.9805 34.3267 70.2031 33.7368 70.2031 33.1118C70.2031 32.9634 70.168 32.8384 70.0977 32.7368C70.043 32.6665 69.9883 32.6313 69.9336 32.6313C69.8477 32.6313 69.6602 32.7095 69.3711 32.8657C69.2305 32.936 69.082 32.9712 68.9258 32.9712C68.543 32.9712 68.2383 32.8579 68.0117 32.6313C67.7852 32.4048 67.6719 32.0923 67.6719 31.6938C67.6719 31.311 67.8164 30.9829 68.1055 30.7095C68.4023 30.436 68.7617 30.2993 69.1836 30.2993C69.6992 30.2993 70.1562 30.5259 70.5547 30.979C70.9609 31.4243 71.1641 32.0181 71.1641 32.7603C71.1641 33.5649 70.8828 34.311 70.3203 34.9985C69.7656 35.6938 68.8828 36.2407 67.6719 36.6392ZM32.0469 49.7681C32.8594 49.7681 33.5508 50.0571 34.1211 50.6353C34.6992 51.2056 34.9883 51.897 34.9883 52.7095C34.9883 53.522 34.6992 54.2173 34.1211 54.7954C33.5508 55.3657 32.8594 55.6509 32.0469 55.6509C31.2344 55.6509 30.5391 55.3657 29.9609 54.7954C29.3906 54.2173 29.1055 53.522 29.1055 52.7095C29.1055 51.897 29.3906 51.2056 29.9609 50.6353C30.5312 50.0571 31.2266 49.7681 32.0469 49.7681ZM66.2188 60.6431H61.9766L56.5977 53.2134C56.1992 53.229 55.875 53.2368 55.625 53.2368C55.5234 53.2368 55.4141 53.2368 55.2969 53.2368C55.1797 53.229 55.0586 53.2212 54.9336 53.2134V57.8306C54.9336 58.8306 55.043 59.4517 55.2617 59.6938C55.5586 60.0376 56.0039 60.2095 56.5977 60.2095H57.2188V60.6431H50.4102V60.2095H51.0078C51.6797 60.2095 52.1602 59.9907 52.4492 59.5532C52.6133 59.311 52.6953 58.7368 52.6953 57.8306V47.5649C52.6953 46.5649 52.5859 45.9438 52.3672 45.7017C52.0625 45.3579 51.6094 45.186 51.0078 45.186H50.4102V44.7524H56.1992C57.8867 44.7524 59.1289 44.8774 59.9258 45.1274C60.7305 45.3696 61.4102 45.8228 61.9648 46.4868C62.5273 47.1431 62.8086 47.9282 62.8086 48.8423C62.8086 49.8188 62.4883 50.6665 61.8477 51.3853C61.2148 52.104 60.2305 52.6118 58.8945 52.9087L62.1758 57.4673C62.9258 58.5142 63.5703 59.2095 64.1094 59.5532C64.6484 59.897 65.3516 60.1157 66.2188 60.2095V60.6431ZM54.9336 52.4751C55.082 52.4751 55.2109 52.479 55.3203 52.4868C55.4297 52.4868 55.5195 52.4868 55.5898 52.4868C57.1055 52.4868 58.2461 52.1587 59.0117 51.5024C59.7852 50.8462 60.1719 50.0103 60.1719 48.9946C60.1719 48.0024 59.8594 47.1978 59.2344 46.5806C58.6172 45.9556 57.7969 45.6431 56.7734 45.6431C56.3203 45.6431 55.707 45.7173 54.9336 45.8657V52.4751ZM68.5625 53.9517C68.5547 55.5454 68.9414 56.7954 69.7227 57.7017C70.5039 58.6079 71.4219 59.061 72.4766 59.061C73.1797 59.061 73.7891 58.8696 74.3047 58.4868C74.8281 58.0962 75.2656 57.4321 75.6172 56.4946L75.9805 56.729C75.8164 57.7993 75.3398 58.7759 74.5508 59.6587C73.7617 60.5337 72.7734 60.9712 71.5859 60.9712C70.2969 60.9712 69.1914 60.4712 68.2695 59.4712C67.3555 58.4634 66.8984 57.1118 66.8984 55.4165C66.8984 53.5806 67.3672 52.1509 68.3047 51.1274C69.25 50.0962 70.4336 49.5806 71.8555 49.5806C73.0586 49.5806 74.0469 49.979 74.8203 50.7759C75.5938 51.5649 75.9805 52.6235 75.9805 53.9517H68.5625ZM68.5625 53.272H73.5312C73.4922 52.5845 73.4102 52.1001 73.2852 51.8188C73.0898 51.3813 72.7969 51.0376 72.4062 50.7876C72.0234 50.5376 71.6211 50.4126 71.1992 50.4126C70.5508 50.4126 69.9688 50.6665 69.4531 51.1743C68.9453 51.6743 68.6484 52.3735 68.5625 53.272ZM83.5039 59.0962C82.4023 59.9478 81.7109 60.4399 81.4297 60.5728C81.0078 60.7681 80.5586 60.8657 80.082 60.8657C79.3398 60.8657 78.7266 60.6118 78.2422 60.104C77.7656 59.5962 77.5273 58.9282 77.5273 58.1001C77.5273 57.5767 77.6445 57.1235 77.8789 56.7407C78.1992 56.2095 78.7539 55.7095 79.543 55.2407C80.3398 54.772 81.6602 54.2017 83.5039 53.5298V53.1079C83.5039 52.0376 83.332 51.3032 82.9883 50.9048C82.6523 50.5063 82.1602 50.3071 81.5117 50.3071C81.0195 50.3071 80.6289 50.4399 80.3398 50.7056C80.043 50.9712 79.8945 51.2759 79.8945 51.6196L79.918 52.2993C79.918 52.6587 79.8242 52.936 79.6367 53.1313C79.457 53.3267 79.2188 53.4243 78.9219 53.4243C78.6328 53.4243 78.3945 53.3228 78.207 53.1196C78.0273 52.9165 77.9375 52.6392 77.9375 52.2876C77.9375 51.6157 78.2812 50.9985 78.9688 50.436C79.6562 49.8735 80.6211 49.5923 81.8633 49.5923C82.8164 49.5923 83.5977 49.7524 84.207 50.0728C84.668 50.3149 85.0078 50.6938 85.2266 51.2095C85.3672 51.5454 85.4375 52.2329 85.4375 53.272V56.9165C85.4375 57.9399 85.457 58.5688 85.4961 58.8032C85.5352 59.0298 85.5977 59.1821 85.6836 59.2603C85.7773 59.3384 85.8828 59.3774 86 59.3774C86.125 59.3774 86.2344 59.3501 86.3281 59.2954C86.4922 59.1938 86.8086 58.9087 87.2773 58.4399V59.0962C86.4023 60.2681 85.5664 60.854 84.7695 60.854C84.3867 60.854 84.082 60.7212 83.8555 60.4556C83.6289 60.1899 83.5117 59.7368 83.5039 59.0962ZM83.5039 58.3345V54.2446C82.3242 54.7134 81.5625 55.0454 81.2188 55.2407C80.6016 55.5845 80.1602 55.9438 79.8945 56.3188C79.6289 56.6938 79.4961 57.104 79.4961 57.5493C79.4961 58.1118 79.6641 58.5806 80 58.9556C80.3359 59.3228 80.7227 59.5063 81.1602 59.5063C81.7539 59.5063 82.5352 59.1157 83.5039 58.3345ZM97.2031 56.5649C96.9141 57.979 96.3477 59.0688 95.5039 59.8345C94.6602 60.5923 93.7266 60.9712 92.7031 60.9712C91.4844 60.9712 90.4219 60.4595 89.5156 59.436C88.6094 58.4126 88.1562 57.0298 88.1562 55.2876C88.1562 53.6001 88.6562 52.229 89.6562 51.1743C90.6641 50.1196 91.8711 49.5923 93.2773 49.5923C94.332 49.5923 95.1992 49.8735 95.8789 50.436C96.5586 50.9907 96.8984 51.5688 96.8984 52.1704C96.8984 52.4673 96.8008 52.7095 96.6055 52.897C96.418 53.0767 96.1523 53.1665 95.8086 53.1665C95.3477 53.1665 95 53.0181 94.7656 52.7212C94.6328 52.5571 94.543 52.2446 94.4961 51.7837C94.457 51.3228 94.3008 50.9712 94.0273 50.729C93.7539 50.4946 93.375 50.3774 92.8906 50.3774C92.1094 50.3774 91.4805 50.6665 91.0039 51.2446C90.3711 52.0103 90.0547 53.022 90.0547 54.2798C90.0547 55.561 90.3672 56.6938 90.9922 57.6782C91.625 58.6548 92.4766 59.1431 93.5469 59.1431C94.3125 59.1431 95 58.8813 95.6094 58.3579C96.0391 57.9985 96.457 57.3462 96.8633 56.4009L97.2031 56.5649ZM101.867 46.3813V49.9087H104.375V50.729H101.867V57.6899C101.867 58.3853 101.965 58.854 102.16 59.0962C102.363 59.3384 102.621 59.4595 102.934 59.4595C103.191 59.4595 103.441 59.3813 103.684 59.2251C103.926 59.061 104.113 58.8228 104.246 58.5103H104.703C104.43 59.2759 104.043 59.854 103.543 60.2446C103.043 60.6274 102.527 60.8188 101.996 60.8188C101.637 60.8188 101.285 60.7212 100.941 60.5259C100.598 60.3228 100.344 60.0376 100.18 59.6704C100.016 59.2954 99.9336 58.7212 99.9336 57.9478V50.729H98.2344V50.3423C98.6641 50.1704 99.1016 49.8813 99.5469 49.4751C100 49.061 100.402 48.5728 100.754 48.0103C100.934 47.7134 101.184 47.1704 101.504 46.3813H101.867ZM107.984 49.5688C108.344 49.5688 108.648 49.6938 108.898 49.9438C109.156 50.1938 109.285 50.4985 109.285 50.8579C109.285 51.2173 109.156 51.5259 108.898 51.7837C108.648 52.0337 108.344 52.1587 107.984 52.1587C107.625 52.1587 107.316 52.0337 107.059 51.7837C106.809 51.5259 106.684 51.2173 106.684 50.8579C106.684 50.4985 106.809 50.1938 107.059 49.9438C107.316 49.6938 107.625 49.5688 107.984 49.5688ZM106.344 64.6392V64.1235C107.148 63.8579 107.77 63.4438 108.207 62.8813C108.652 62.3267 108.875 61.7368 108.875 61.1118C108.875 60.9634 108.84 60.8384 108.77 60.7368C108.715 60.6665 108.66 60.6313 108.605 60.6313C108.52 60.6313 108.332 60.7095 108.043 60.8657C107.902 60.936 107.754 60.9712 107.598 60.9712C107.215 60.9712 106.91 60.8579 106.684 60.6313C106.457 60.4048 106.344 60.0923 106.344 59.6938C106.344 59.311 106.488 58.9829 106.777 58.7095C107.074 58.436 107.434 58.2993 107.855 58.2993C108.371 58.2993 108.828 58.5259 109.227 58.979C109.633 59.4243 109.836 60.0181 109.836 60.7603C109.836 61.5649 109.555 62.311 108.992 62.9985C108.438 63.6938 107.555 64.2407 106.344 64.6392ZM32.0469 77.7681C32.8594 77.7681 33.5508 78.0571 34.1211 78.6353C34.6992 79.2056 34.9883 79.897 34.9883 80.7095C34.9883 81.522 34.6992 82.2173 34.1211 82.7954C33.5508 83.3657 32.8594 83.6509 32.0469 83.6509C31.2344 83.6509 30.5391 83.3657 29.9609 82.7954C29.3906 82.2173 29.1055 81.522 29.1055 80.7095C29.1055 79.897 29.3906 79.2056 29.9609 78.6353C30.5312 78.0571 31.2266 77.7681 32.0469 77.7681ZM60.9805 83.3228H54.8281L53.75 85.8306C53.4844 86.4478 53.3516 86.9087 53.3516 87.2134C53.3516 87.4556 53.4648 87.6704 53.6914 87.8579C53.9258 88.0376 54.4258 88.1548 55.1914 88.2095V88.6431H50.1875V88.2095C50.8516 88.0923 51.2812 87.9399 51.4766 87.7524C51.875 87.3774 52.3164 86.6157 52.8008 85.4673L58.3906 72.3892H58.8008L64.332 85.6079C64.7773 86.6704 65.1797 87.3618 65.5391 87.6821C65.9062 87.9946 66.4141 88.1704 67.0625 88.2095V88.6431H60.793V88.2095C61.4258 88.1782 61.8516 88.0728 62.0703 87.8931C62.2969 87.7134 62.4102 87.4946 62.4102 87.2368C62.4102 86.8931 62.2539 86.3501 61.9414 85.6079L60.9805 83.3228ZM60.6523 82.4556L57.957 76.0337L55.1914 82.4556H60.6523ZM71.2227 79.8657C72.4805 78.3501 73.6797 77.5923 74.8203 77.5923C75.4062 77.5923 75.9102 77.7407 76.332 78.0376C76.7539 78.3267 77.0898 78.8071 77.3398 79.479C77.5117 79.9478 77.5977 80.6665 77.5977 81.6353V86.2173C77.5977 86.897 77.6523 87.3579 77.7617 87.6001C77.8477 87.7954 77.9844 87.9478 78.1719 88.0571C78.3672 88.1665 78.7227 88.2212 79.2383 88.2212V88.6431H73.9297V88.2212H74.1523C74.6523 88.2212 75 88.147 75.1953 87.9985C75.3984 87.8423 75.5391 87.6157 75.6172 87.3188C75.6484 87.2017 75.6641 86.8345 75.6641 86.2173V81.8228C75.6641 80.8462 75.5352 80.1392 75.2773 79.7017C75.0273 79.2563 74.6016 79.0337 74 79.0337C73.0703 79.0337 72.1445 79.5415 71.2227 80.5571V86.2173C71.2227 86.9438 71.2656 87.3931 71.3516 87.5649C71.4609 87.7915 71.6094 87.9595 71.7969 88.0688C71.9922 88.1704 72.3828 88.2212 72.9688 88.2212V88.6431H67.6602V88.2212H67.8945C68.4414 88.2212 68.8086 88.0845 68.9961 87.811C69.1914 87.5298 69.2891 86.9985 69.2891 86.2173V82.2329C69.2891 80.9438 69.2578 80.1587 69.1953 79.8774C69.1406 79.5962 69.0508 79.4048 68.9258 79.3032C68.8086 79.2017 68.6484 79.1509 68.4453 79.1509C68.2266 79.1509 67.9648 79.2095 67.6602 79.3267L67.4844 78.9048L70.7188 77.5923H71.2227V79.8657ZM82.9648 84.729C82.3086 84.4087 81.8047 83.9634 81.4531 83.3931C81.1016 82.8149 80.9258 82.1782 80.9258 81.4829C80.9258 80.4204 81.3242 79.5063 82.1211 78.7407C82.9258 77.9751 83.9531 77.5923 85.2031 77.5923C86.2266 77.5923 87.1133 77.8423 87.8633 78.3423H90.1367C90.4727 78.3423 90.668 78.354 90.7227 78.3774C90.7773 78.3931 90.8164 78.4243 90.8398 78.4712C90.8867 78.5415 90.9102 78.6665 90.9102 78.8462C90.9102 79.0493 90.8906 79.1899 90.8516 79.2681C90.8281 79.3071 90.7852 79.3384 90.7227 79.3618C90.668 79.3853 90.4727 79.397 90.1367 79.397H88.7422C89.1797 79.9595 89.3984 80.6782 89.3984 81.5532C89.3984 82.5532 89.0156 83.4087 88.25 84.1196C87.4844 84.8306 86.457 85.186 85.168 85.186C84.6367 85.186 84.0938 85.1079 83.5391 84.9517C83.1953 85.2485 82.9609 85.5103 82.8359 85.7368C82.7188 85.9556 82.6602 86.1431 82.6602 86.2993C82.6602 86.4321 82.7227 86.561 82.8477 86.686C82.9805 86.811 83.2344 86.9009 83.6094 86.9556C83.8281 86.9868 84.375 87.0142 85.25 87.0376C86.8594 87.0767 87.9023 87.1313 88.3789 87.2017C89.1055 87.3032 89.6836 87.5728 90.1133 88.0103C90.5508 88.4478 90.7695 88.9868 90.7695 89.6274C90.7695 90.5103 90.3555 91.3384 89.5273 92.1118C88.3086 93.2524 86.7188 93.8228 84.7578 93.8228C83.25 93.8228 81.9766 93.4829 80.9375 92.8032C80.3516 92.4126 80.0586 92.0063 80.0586 91.5845C80.0586 91.397 80.1016 91.2095 80.1875 91.022C80.3203 90.7329 80.5938 90.3306 81.0078 89.8149C81.0625 89.7446 81.4609 89.3228 82.2031 88.5493C81.7969 88.3071 81.5078 88.0923 81.3359 87.9048C81.1719 87.7095 81.0898 87.4907 81.0898 87.2485C81.0898 86.9751 81.1992 86.6548 81.418 86.2876C81.6445 85.9204 82.1602 85.4009 82.9648 84.729ZM85.0039 78.1548C84.4258 78.1548 83.9414 78.3853 83.5508 78.8462C83.1602 79.3071 82.9648 80.0142 82.9648 80.9673C82.9648 82.2017 83.2305 83.1587 83.7617 83.8384C84.168 84.354 84.6836 84.6118 85.3086 84.6118C85.9023 84.6118 86.3906 84.3892 86.7734 83.9438C87.1562 83.4985 87.3477 82.7993 87.3477 81.8462C87.3477 80.604 87.0781 79.6313 86.5391 78.9282C86.1406 78.4126 85.6289 78.1548 85.0039 78.1548ZM82.8477 88.6431C82.4805 89.0415 82.2031 89.4126 82.0156 89.7563C81.8281 90.1001 81.7344 90.4165 81.7344 90.7056C81.7344 91.0806 81.9609 91.4087 82.4141 91.6899C83.1953 92.1743 84.3242 92.4165 85.8008 92.4165C87.207 92.4165 88.2422 92.1665 88.9062 91.6665C89.5781 91.1743 89.9141 90.647 89.9141 90.0845C89.9141 89.6782 89.7148 89.3892 89.3164 89.2173C88.9102 89.0454 88.1055 88.9438 86.9023 88.9126C85.1445 88.8657 83.793 88.7759 82.8477 88.6431ZM101.504 77.9087V84.4126C101.504 85.6548 101.531 86.4165 101.586 86.6978C101.648 86.9712 101.742 87.1626 101.867 87.272C102 87.3813 102.152 87.436 102.324 87.436C102.566 87.436 102.84 87.3696 103.145 87.2368L103.309 87.647L100.098 88.9712H99.5703V86.6978C98.6484 87.6978 97.9453 88.3267 97.4609 88.5845C96.9766 88.8423 96.4648 88.9712 95.9258 88.9712C95.3242 88.9712 94.8008 88.7993 94.3555 88.4556C93.918 88.104 93.6133 87.6548 93.4414 87.1079C93.2695 86.561 93.1836 85.7876 93.1836 84.7876V79.9946C93.1836 79.4868 93.1289 79.1353 93.0195 78.9399C92.9102 78.7446 92.7461 78.5962 92.5273 78.4946C92.3164 78.3853 91.9297 78.3345 91.3672 78.3423V77.9087H95.1289V85.0923C95.1289 86.0923 95.3008 86.7485 95.6445 87.061C95.9961 87.3735 96.418 87.5298 96.9102 87.5298C97.2461 87.5298 97.625 87.4243 98.0469 87.2134C98.4766 87.0024 98.9844 86.6001 99.5703 86.0063V79.9243C99.5703 79.3149 99.457 78.9048 99.2305 78.6938C99.0117 78.4751 98.5508 78.3579 97.8477 78.3423V77.9087H101.504ZM107.785 71.979V86.2173C107.785 86.8892 107.832 87.3345 107.926 87.5532C108.027 87.772 108.18 87.9399 108.383 88.0571C108.586 88.1665 108.965 88.2212 109.52 88.2212V88.6431H104.258V88.2212C104.75 88.2212 105.086 88.1704 105.266 88.0688C105.445 87.9673 105.586 87.7993 105.688 87.5649C105.789 87.3306 105.84 86.8813 105.84 86.2173V76.4673C105.84 75.2563 105.812 74.5142 105.758 74.2407C105.703 73.9595 105.613 73.7681 105.488 73.6665C105.371 73.5649 105.219 73.5142 105.031 73.5142C104.828 73.5142 104.57 73.5767 104.258 73.7017L104.059 73.2915L107.258 71.979H107.785ZM116.855 87.0962C115.754 87.9478 115.062 88.4399 114.781 88.5728C114.359 88.7681 113.91 88.8657 113.434 88.8657C112.691 88.8657 112.078 88.6118 111.594 88.104C111.117 87.5962 110.879 86.9282 110.879 86.1001C110.879 85.5767 110.996 85.1235 111.23 84.7407C111.551 84.2095 112.105 83.7095 112.895 83.2407C113.691 82.772 115.012 82.2017 116.855 81.5298V81.1079C116.855 80.0376 116.684 79.3032 116.34 78.9048C116.004 78.5063 115.512 78.3071 114.863 78.3071C114.371 78.3071 113.98 78.4399 113.691 78.7056C113.395 78.9712 113.246 79.2759 113.246 79.6196L113.27 80.2993C113.27 80.6587 113.176 80.936 112.988 81.1313C112.809 81.3267 112.57 81.4243 112.273 81.4243C111.984 81.4243 111.746 81.3228 111.559 81.1196C111.379 80.9165 111.289 80.6392 111.289 80.2876C111.289 79.6157 111.633 78.9985 112.32 78.436C113.008 77.8735 113.973 77.5923 115.215 77.5923C116.168 77.5923 116.949 77.7524 117.559 78.0728C118.02 78.3149 118.359 78.6938 118.578 79.2095C118.719 79.5454 118.789 80.2329 118.789 81.272V84.9165C118.789 85.9399 118.809 86.5688 118.848 86.8032C118.887 87.0298 118.949 87.1821 119.035 87.2603C119.129 87.3384 119.234 87.3774 119.352 87.3774C119.477 87.3774 119.586 87.3501 119.68 87.2954C119.844 87.1938 120.16 86.9087 120.629 86.4399V87.0962C119.754 88.2681 118.918 88.854 118.121 88.854C117.738 88.854 117.434 88.7212 117.207 88.4556C116.98 88.1899 116.863 87.7368 116.855 87.0962ZM116.855 86.3345V82.2446C115.676 82.7134 114.914 83.0454 114.57 83.2407C113.953 83.5845 113.512 83.9438 113.246 84.3188C112.98 84.6938 112.848 85.104 112.848 85.5493C112.848 86.1118 113.016 86.5806 113.352 86.9556C113.688 87.3228 114.074 87.5063 114.512 87.5063C115.105 87.5063 115.887 87.1157 116.855 86.3345ZM124.578 77.5923V80.0063C125.477 78.397 126.398 77.5923 127.344 77.5923C127.773 77.5923 128.129 77.7251 128.41 77.9907C128.691 78.2485 128.832 78.5493 128.832 78.8931C128.832 79.1978 128.73 79.4556 128.527 79.6665C128.324 79.8774 128.082 79.9829 127.801 79.9829C127.527 79.9829 127.219 79.8501 126.875 79.5845C126.539 79.311 126.289 79.1743 126.125 79.1743C125.984 79.1743 125.832 79.2524 125.668 79.4087C125.316 79.729 124.953 80.2563 124.578 80.9907V86.1353C124.578 86.729 124.652 87.1782 124.801 87.4829C124.902 87.6938 125.082 87.8696 125.34 88.0103C125.598 88.1509 125.969 88.2212 126.453 88.2212V88.6431H120.957V88.2212C121.504 88.2212 121.91 88.1353 122.176 87.9634C122.371 87.8384 122.508 87.6392 122.586 87.3657C122.625 87.2329 122.645 86.854 122.645 86.229V82.0688C122.645 80.8188 122.617 80.0767 122.562 79.8423C122.516 79.6001 122.422 79.4243 122.281 79.3149C122.148 79.2056 121.98 79.1509 121.777 79.1509C121.535 79.1509 121.262 79.2095 120.957 79.3267L120.84 78.9048L124.086 77.5923H124.578ZM131.984 77.5688C132.344 77.5688 132.648 77.6938 132.898 77.9438C133.156 78.1938 133.285 78.4985 133.285 78.8579C133.285 79.2173 133.156 79.5259 132.898 79.7837C132.648 80.0337 132.344 80.1587 131.984 80.1587C131.625 80.1587 131.316 80.0337 131.059 79.7837C130.809 79.5259 130.684 79.2173 130.684 78.8579C130.684 78.4985 130.809 78.1938 131.059 77.9438C131.316 77.6938 131.625 77.5688 131.984 77.5688ZM130.344 92.6392V92.1235C131.148 91.8579 131.77 91.4438 132.207 90.8813C132.652 90.3267 132.875 89.7368 132.875 89.1118C132.875 88.9634 132.84 88.8384 132.77 88.7368C132.715 88.6665 132.66 88.6313 132.605 88.6313C132.52 88.6313 132.332 88.7095 132.043 88.8657C131.902 88.936 131.754 88.9712 131.598 88.9712C131.215 88.9712 130.91 88.8579 130.684 88.6313C130.457 88.4048 130.344 88.0923 130.344 87.6938C130.344 87.311 130.488 86.9829 130.777 86.7095C131.074 86.436 131.434 86.2993 131.855 86.2993C132.371 86.2993 132.828 86.5259 133.227 86.979C133.633 87.4243 133.836 88.0181 133.836 88.7603C133.836 89.5649 133.555 90.311 132.992 90.9985C132.438 91.6938 131.555 92.2407 130.344 92.6392Z" fill="black"/>
</g>
<defs>
<filter id="filter0_d_14_250" x="0" y="0.643066" width="150" height="112" filterUnits="userSpaceOnUse" color-interpolation-filters="sRGB">
<feFlood flood-opacity="0" result="BackgroundImageFix"/>
<feColorMatrix in="SourceAlpha" type="matrix" values="0 0 0 0 0 0 0 0 0 0 0 0 0 0 0 0 0 0 127 0" result="hardAlpha"/>
<feOffset dy="4"/>
<feGaussianBlur stdDeviation="2"/>
<feComposite in2="hardAlpha" operator="out"/>
<feColorMatrix type="matrix" values="0 0 0 0 0 0 0 0 0 0 0 0 0 0 0 0 0 0 0.25 0"/>
<feBlend mode="normal" in2="BackgroundImageFix" result="effect1_dropShadow_14_250"/>
<feBlend mode="normal" in="SourceGraphic" in2="effect1_dropShadow_14_250" result="shape"/>
</filter>
</defs>
</svg>
