<svg width="172" height="113" viewBox="0 0 172 113" fill="none" xmlns="http://www.w3.org/2000/svg">
<g filter="url(#filter0_d_14_247)">
<rect x="4" y="0.839355" width="164" height="104" rx="20" fill="black" fill-opacity="0.13" shape-rendering="crispEdges"/>
<path d="M32.0469 21.9644C32.8594 21.9644 33.5508 22.2534 34.1211 22.8315C34.6992 23.4019 34.9883 24.0933 34.9883 24.9058C34.9883 25.7183 34.6992 26.4136 34.1211 26.9917C33.5508 27.562 32.8594 27.8472 32.0469 27.8472C31.2344 27.8472 30.5391 27.562 29.9609 26.9917C29.3906 26.4136 29.1055 25.7183 29.1055 24.9058C29.1055 24.0933 29.3906 23.4019 29.9609 22.8315C30.5312 22.2534 31.2266 21.9644 32.0469 21.9644ZM49.6836 16.9487H53.9961L63.7109 28.8667V19.7026C63.7109 18.7261 63.6016 18.1167 63.3828 17.8745C63.0938 17.5464 62.6367 17.3823 62.0117 17.3823H61.4609V16.9487H66.9922V17.3823H66.4297C65.7578 17.3823 65.2812 17.5854 65 17.9917C64.8281 18.2417 64.7422 18.812 64.7422 19.7026V33.0972H64.3203L53.8438 20.3003V30.0854C53.8438 31.062 53.9492 31.6714 54.1602 31.9136C54.457 32.2417 54.9141 32.4058 55.5312 32.4058H56.0938V32.8394H50.5625V32.4058H51.1133C51.793 32.4058 52.2734 32.2026 52.5547 31.7964C52.7266 31.5464 52.8125 30.9761 52.8125 30.0854V19.0347C52.3516 18.4956 52 18.1401 51.7578 17.9683C51.5234 17.7964 51.1758 17.6362 50.7148 17.4878C50.4883 17.4175 50.1445 17.3823 49.6836 17.3823V16.9487ZM73.3438 21.7886C74.9688 21.7886 76.2734 22.4058 77.2578 23.6401C78.0938 24.6948 78.5117 25.9058 78.5117 27.2729C78.5117 28.2339 78.2812 29.2065 77.8203 30.1909C77.3594 31.1753 76.7227 31.9175 75.9102 32.4175C75.1055 32.9175 74.207 33.1675 73.2148 33.1675C71.5977 33.1675 70.3125 32.5229 69.3594 31.2339C68.5547 30.1479 68.1523 28.9292 68.1523 27.5776C68.1523 26.5933 68.3945 25.6167 68.8789 24.6479C69.3711 23.6714 70.0156 22.9526 70.8125 22.4917C71.6094 22.0229 72.4531 21.7886 73.3438 21.7886ZM72.9805 22.5503C72.5664 22.5503 72.1484 22.6753 71.7266 22.9253C71.3125 23.1675 70.9766 23.5972 70.7188 24.2144C70.4609 24.8315 70.332 25.6245 70.332 26.5933C70.332 28.1558 70.6406 29.5034 71.2578 30.6362C71.8828 31.769 72.7031 32.3354 73.7188 32.3354C74.4766 32.3354 75.1016 32.0229 75.5938 31.3979C76.0859 30.7729 76.332 29.6987 76.332 28.1753C76.332 26.269 75.9219 24.769 75.1016 23.6753C74.5469 22.9253 73.8398 22.5503 72.9805 22.5503ZM87.6758 31.6323C87.1523 32.1792 86.6406 32.5737 86.1406 32.8159C85.6406 33.0503 85.1016 33.1675 84.5234 33.1675C83.3516 33.1675 82.3281 32.6792 81.4531 31.7026C80.5781 30.7183 80.1406 29.4565 80.1406 27.9175C80.1406 26.3784 80.625 24.9722 81.5938 23.6987C82.5625 22.4175 83.8086 21.7769 85.332 21.7769C86.2773 21.7769 87.0586 22.0776 87.6758 22.6792V20.6987C87.6758 19.4722 87.6445 18.7183 87.582 18.437C87.5273 18.1558 87.4375 17.9644 87.3125 17.8628C87.1875 17.7612 87.0312 17.7104 86.8438 17.7104C86.6406 17.7104 86.3711 17.7729 86.0352 17.8979L85.8828 17.4878L89.082 16.1753H89.6094V28.5854C89.6094 29.8433 89.6367 30.6128 89.6914 30.894C89.7539 31.1675 89.8477 31.3589 89.9727 31.4683C90.1055 31.5776 90.2578 31.6323 90.4297 31.6323C90.6406 31.6323 90.9219 31.5659 91.2734 31.4331L91.4023 31.8433L88.2148 33.1675H87.6758V31.6323ZM87.6758 30.812V25.2808C87.6289 24.7495 87.4883 24.2651 87.2539 23.8276C87.0195 23.3901 86.707 23.062 86.3164 22.8433C85.9336 22.6167 85.5586 22.5034 85.1914 22.5034C84.5039 22.5034 83.8906 22.812 83.3516 23.4292C82.6406 24.2417 82.2852 25.4292 82.2852 26.9917C82.2852 28.5698 82.6289 29.7808 83.3164 30.6245C84.0039 31.4604 84.7695 31.8784 85.6133 31.8784C86.3242 31.8784 87.0117 31.5229 87.6758 30.812ZM93.8984 26.1479C93.8906 27.7417 94.2773 28.9917 95.0586 29.8979C95.8398 30.8042 96.7578 31.2573 97.8125 31.2573C98.5156 31.2573 99.125 31.0659 99.6406 30.6831C100.164 30.2925 100.602 29.6284 100.953 28.6909L101.316 28.9253C101.152 29.9956 100.676 30.9722 99.8867 31.855C99.0977 32.73 98.1094 33.1675 96.9219 33.1675C95.6328 33.1675 94.5273 32.6675 93.6055 31.6675C92.6914 30.6597 92.2344 29.3081 92.2344 27.6128C92.2344 25.7769 92.7031 24.3472 93.6406 23.3237C94.5859 22.2925 95.7695 21.7769 97.1914 21.7769C98.3945 21.7769 99.3828 22.1753 100.156 22.9722C100.93 23.7612 101.316 24.8198 101.316 26.1479H93.8984ZM93.8984 25.4683H98.8672C98.8281 24.7808 98.7461 24.2964 98.6211 24.0151C98.4258 23.5776 98.1328 23.2339 97.7422 22.9839C97.3594 22.7339 96.957 22.6089 96.5352 22.6089C95.8867 22.6089 95.3047 22.8628 94.7891 23.3706C94.2812 23.8706 93.9844 24.5698 93.8984 25.4683ZM105.312 21.7651C105.672 21.7651 105.977 21.8901 106.227 22.1401C106.484 22.3901 106.613 22.6948 106.613 23.0542C106.613 23.4136 106.484 23.7222 106.227 23.98C105.977 24.23 105.672 24.355 105.312 24.355C104.953 24.355 104.645 24.23 104.387 23.98C104.137 23.7222 104.012 23.4136 104.012 23.0542C104.012 22.6948 104.137 22.3901 104.387 22.1401C104.645 21.8901 104.953 21.7651 105.312 21.7651ZM103.672 36.8354V36.3198C104.477 36.0542 105.098 35.6401 105.535 35.0776C105.98 34.5229 106.203 33.9331 106.203 33.3081C106.203 33.1597 106.168 33.0347 106.098 32.9331C106.043 32.8628 105.988 32.8276 105.934 32.8276C105.848 32.8276 105.66 32.9058 105.371 33.062C105.23 33.1323 105.082 33.1675 104.926 33.1675C104.543 33.1675 104.238 33.0542 104.012 32.8276C103.785 32.6011 103.672 32.2886 103.672 31.8901C103.672 31.5073 103.816 31.1792 104.105 30.9058C104.402 30.6323 104.762 30.4956 105.184 30.4956C105.699 30.4956 106.156 30.7222 106.555 31.1753C106.961 31.6206 107.164 32.2144 107.164 32.9565C107.164 33.7612 106.883 34.5073 106.32 35.1948C105.766 35.8901 104.883 36.437 103.672 36.8354ZM32.0469 49.9644C32.8594 49.9644 33.5508 50.2534 34.1211 50.8315C34.6992 51.4019 34.9883 52.0933 34.9883 52.9058C34.9883 53.7183 34.6992 54.4136 34.1211 54.9917C33.5508 55.562 32.8594 55.8472 32.0469 55.8472C31.2344 55.8472 30.5391 55.562 29.9609 54.9917C29.3906 54.4136 29.1055 53.7183 29.1055 52.9058C29.1055 52.0933 29.3906 51.4019 29.9609 50.8315C30.5312 50.2534 31.2266 49.9644 32.0469 49.9644ZM63.8867 44.9487L64.0625 48.6753H63.6172C63.5312 48.019 63.4141 47.5503 63.2656 47.269C63.0234 46.8159 62.6992 46.4839 62.293 46.2729C61.8945 46.0542 61.3672 45.9448 60.7109 45.9448H58.4727V58.0854C58.4727 59.062 58.5781 59.6714 58.7891 59.9136C59.0859 60.2417 59.543 60.4058 60.1602 60.4058H60.7109V60.8394H53.9727V60.4058H54.5352C55.207 60.4058 55.6836 60.2026 55.9648 59.7964C56.1367 59.5464 56.2227 58.9761 56.2227 58.0854V45.9448H54.3125C53.5703 45.9448 53.043 45.9995 52.7305 46.1089C52.3242 46.2573 51.9766 46.5425 51.6875 46.9644C51.3984 47.3862 51.2266 47.9565 51.1719 48.6753H50.7266L50.9141 44.9487H63.8867ZM63.125 50.105H68.1289V50.5386H67.8828C67.5312 50.5386 67.2656 50.6167 67.0859 50.7729C66.9141 50.9214 66.8281 51.1089 66.8281 51.3354C66.8281 51.6401 66.957 52.062 67.2148 52.6011L69.8281 58.0151L72.2305 52.0854C72.3633 51.7651 72.4297 51.4487 72.4297 51.1362C72.4297 50.9956 72.4023 50.8901 72.3477 50.8198C72.2852 50.7339 72.1875 50.6675 72.0547 50.6206C71.9219 50.5659 71.6875 50.5386 71.3516 50.5386V50.105H74.8438V50.5386C74.5547 50.5698 74.332 50.6323 74.1758 50.7261C74.0195 50.8198 73.8477 50.9956 73.6602 51.2534C73.5898 51.3628 73.457 51.6636 73.2617 52.1558L68.8906 62.8667C68.4688 63.9058 67.9141 64.6909 67.2266 65.2222C66.5469 65.7534 65.8906 66.019 65.2578 66.019C64.7969 66.019 64.418 65.8862 64.1211 65.6206C63.8242 65.355 63.6758 65.0503 63.6758 64.7065C63.6758 64.3784 63.7812 64.1128 63.9922 63.9097C64.2109 63.7144 64.5078 63.6167 64.8828 63.6167C65.1406 63.6167 65.4922 63.7026 65.9375 63.8745C66.25 63.9917 66.4453 64.0503 66.5234 64.0503C66.7578 64.0503 67.0117 63.9292 67.2852 63.687C67.5664 63.4448 67.8477 62.9761 68.1289 62.2808L68.8906 60.4175L65.0352 52.3198C64.918 52.0776 64.7305 51.7769 64.4727 51.4175C64.2773 51.144 64.1172 50.9604 63.9922 50.8667C63.8125 50.7417 63.5234 50.6323 63.125 50.5386V50.105ZM74.9609 51.1714L78.2656 49.8354H78.7109V52.3433C79.2656 51.3979 79.8203 50.7378 80.375 50.3628C80.9375 49.98 81.5273 49.7886 82.1445 49.7886C83.2227 49.7886 84.1211 50.2104 84.8398 51.0542C85.7227 52.0854 86.1641 53.4292 86.1641 55.0854C86.1641 56.937 85.6328 58.4683 84.5703 59.6792C83.6953 60.6714 82.5938 61.1675 81.2656 61.1675C80.6875 61.1675 80.1875 61.0854 79.7656 60.9214C79.4531 60.8042 79.1016 60.5698 78.7109 60.2183V63.4878C78.7109 64.2222 78.7539 64.687 78.8398 64.8823C78.9336 65.0854 79.0898 65.2456 79.3086 65.3628C79.5352 65.48 79.9414 65.5386 80.5273 65.5386V65.9722H74.9023V65.5386H75.1953C75.625 65.5464 75.9922 65.4644 76.2969 65.2925C76.4453 65.2065 76.5586 65.0659 76.6367 64.8706C76.7227 64.6831 76.7656 64.1987 76.7656 63.4175V53.269C76.7656 52.5737 76.7344 52.1323 76.6719 51.9448C76.6094 51.7573 76.5078 51.6167 76.3672 51.5229C76.2344 51.4292 76.0508 51.3823 75.8164 51.3823C75.6289 51.3823 75.3906 51.437 75.1016 51.5464L74.9609 51.1714ZM78.7109 53.0347V57.0425C78.7109 57.9097 78.7461 58.48 78.8164 58.7534C78.9258 59.2065 79.1914 59.605 79.6133 59.9487C80.043 60.2925 80.582 60.4644 81.2305 60.4644C82.0117 60.4644 82.6445 60.1597 83.1289 59.5503C83.7617 58.7534 84.0781 57.6323 84.0781 56.187C84.0781 54.5464 83.7188 53.2847 83 52.4019C82.5 51.7925 81.9062 51.4878 81.2188 51.4878C80.8438 51.4878 80.4727 51.5815 80.1055 51.769C79.8242 51.9097 79.3594 52.3315 78.7109 53.0347ZM89.5391 54.1479C89.5312 55.7417 89.918 56.9917 90.6992 57.8979C91.4805 58.8042 92.3984 59.2573 93.4531 59.2573C94.1562 59.2573 94.7656 59.0659 95.2812 58.6831C95.8047 58.2925 96.2422 57.6284 96.5938 56.6909L96.957 56.9253C96.793 57.9956 96.3164 58.9722 95.5273 59.855C94.7383 60.73 93.75 61.1675 92.5625 61.1675C91.2734 61.1675 90.168 60.6675 89.2461 59.6675C88.332 58.6597 87.875 57.3081 87.875 55.6128C87.875 53.7769 88.3438 52.3472 89.2812 51.3237C90.2266 50.2925 91.4102 49.7769 92.832 49.7769C94.0352 49.7769 95.0234 50.1753 95.7969 50.9722C96.5703 51.7612 96.957 52.8198 96.957 54.1479H89.5391ZM89.5391 53.4683H94.5078C94.4688 52.7808 94.3867 52.2964 94.2617 52.0151C94.0664 51.5776 93.7734 51.2339 93.3828 50.9839C93 50.7339 92.5977 50.6089 92.1758 50.6089C91.5273 50.6089 90.9453 50.8628 90.4297 51.3706C89.9219 51.8706 89.625 52.5698 89.5391 53.4683ZM105.336 49.7886V53.4448H104.949C104.652 52.2964 104.27 51.5151 103.801 51.1011C103.34 50.687 102.75 50.48 102.031 50.48C101.484 50.48 101.043 50.6245 100.707 50.9136C100.371 51.2026 100.203 51.5229 100.203 51.8745C100.203 52.312 100.328 52.687 100.578 52.9995C100.82 53.3198 101.312 53.6597 102.055 54.019L103.766 54.8511C105.352 55.6245 106.145 56.644 106.145 57.9097C106.145 58.8862 105.773 59.6753 105.031 60.2769C104.297 60.8706 103.473 61.1675 102.559 61.1675C101.902 61.1675 101.152 61.0503 100.309 60.8159C100.051 60.7378 99.8398 60.6987 99.6758 60.6987C99.4961 60.6987 99.3555 60.8003 99.2539 61.0034H98.8672V57.1714H99.2539C99.4727 58.2651 99.8906 59.0894 100.508 59.644C101.125 60.1987 101.816 60.4761 102.582 60.4761C103.121 60.4761 103.559 60.3198 103.895 60.0073C104.238 59.687 104.41 59.3042 104.41 58.8589C104.41 58.3198 104.219 57.8667 103.836 57.4995C103.461 57.1323 102.707 56.6675 101.574 56.105C100.441 55.5425 99.6992 55.0347 99.3477 54.5815C98.9961 54.1362 98.8203 53.5737 98.8203 52.894C98.8203 52.0112 99.1211 51.2729 99.7227 50.6792C100.332 50.0854 101.117 49.7886 102.078 49.7886C102.5 49.7886 103.012 49.8784 103.613 50.0581C104.012 50.1753 104.277 50.2339 104.41 50.2339C104.535 50.2339 104.633 50.2065 104.703 50.1519C104.773 50.0972 104.855 49.9761 104.949 49.7886H105.336ZM116.867 56.7612C116.578 58.1753 116.012 59.2651 115.168 60.0308C114.324 60.7886 113.391 61.1675 112.367 61.1675C111.148 61.1675 110.086 60.6558 109.18 59.6323C108.273 58.6089 107.82 57.2261 107.82 55.4839C107.82 53.7964 108.32 52.4253 109.32 51.3706C110.328 50.3159 111.535 49.7886 112.941 49.7886C113.996 49.7886 114.863 50.0698 115.543 50.6323C116.223 51.187 116.562 51.7651 116.562 52.3667C116.562 52.6636 116.465 52.9058 116.27 53.0933C116.082 53.2729 115.816 53.3628 115.473 53.3628C115.012 53.3628 114.664 53.2144 114.43 52.9175C114.297 52.7534 114.207 52.4409 114.16 51.98C114.121 51.519 113.965 51.1675 113.691 50.9253C113.418 50.6909 113.039 50.5737 112.555 50.5737C111.773 50.5737 111.145 50.8628 110.668 51.4409C110.035 52.2065 109.719 53.2183 109.719 54.4761C109.719 55.7573 110.031 56.8901 110.656 57.8745C111.289 58.8511 112.141 59.3394 113.211 59.3394C113.977 59.3394 114.664 59.0776 115.273 58.5542C115.703 58.1948 116.121 57.5425 116.527 56.5972L116.867 56.7612ZM121.555 49.7886V52.2026C122.453 50.5933 123.375 49.7886 124.32 49.7886C124.75 49.7886 125.105 49.9214 125.387 50.187C125.668 50.4448 125.809 50.7456 125.809 51.0894C125.809 51.394 125.707 51.6519 125.504 51.8628C125.301 52.0737 125.059 52.1792 124.777 52.1792C124.504 52.1792 124.195 52.0464 123.852 51.7808C123.516 51.5073 123.266 51.3706 123.102 51.3706C122.961 51.3706 122.809 51.4487 122.645 51.605C122.293 51.9253 121.93 52.4526 121.555 53.187V58.3315C121.555 58.9253 121.629 59.3745 121.777 59.6792C121.879 59.8901 122.059 60.0659 122.316 60.2065C122.574 60.3472 122.945 60.4175 123.43 60.4175V60.8394H117.934V60.4175C118.48 60.4175 118.887 60.3315 119.152 60.1597C119.348 60.0347 119.484 59.8354 119.562 59.562C119.602 59.4292 119.621 59.0503 119.621 58.4253V54.2651C119.621 53.0151 119.594 52.2729 119.539 52.0386C119.492 51.7964 119.398 51.6206 119.258 51.5112C119.125 51.4019 118.957 51.3472 118.754 51.3472C118.512 51.3472 118.238 51.4058 117.934 51.5229L117.816 51.1011L121.062 49.7886H121.555ZM129.137 44.1753C129.465 44.1753 129.742 44.2925 129.969 44.5269C130.203 44.7534 130.32 45.0308 130.32 45.3589C130.32 45.687 130.203 45.9683 129.969 46.2026C129.742 46.437 129.465 46.5542 129.137 46.5542C128.809 46.5542 128.527 46.437 128.293 46.2026C128.059 45.9683 127.941 45.687 127.941 45.3589C127.941 45.0308 128.055 44.7534 128.281 44.5269C128.516 44.2925 128.801 44.1753 129.137 44.1753ZM130.109 49.7886V58.4136C130.109 59.0854 130.156 59.5347 130.25 59.7612C130.352 59.98 130.496 60.144 130.684 60.2534C130.879 60.3628 131.23 60.4175 131.738 60.4175V60.8394H126.523V60.4175C127.047 60.4175 127.398 60.3667 127.578 60.2651C127.758 60.1636 127.898 59.9956 128 59.7612C128.109 59.5269 128.164 59.0776 128.164 58.4136V54.2769C128.164 53.1128 128.129 52.3589 128.059 52.0151C128.004 51.7651 127.918 51.5933 127.801 51.4995C127.684 51.3979 127.523 51.3472 127.32 51.3472C127.102 51.3472 126.836 51.4058 126.523 51.5229L126.359 51.1011L129.594 49.7886H130.109ZM132.312 51.1714L135.617 49.8354H136.062V52.3433C136.617 51.3979 137.172 50.7378 137.727 50.3628C138.289 49.98 138.879 49.7886 139.496 49.7886C140.574 49.7886 141.473 50.2104 142.191 51.0542C143.074 52.0854 143.516 53.4292 143.516 55.0854C143.516 56.937 142.984 58.4683 141.922 59.6792C141.047 60.6714 139.945 61.1675 138.617 61.1675C138.039 61.1675 137.539 61.0854 137.117 60.9214C136.805 60.8042 136.453 60.5698 136.062 60.2183V63.4878C136.062 64.2222 136.105 64.687 136.191 64.8823C136.285 65.0854 136.441 65.2456 136.66 65.3628C136.887 65.48 137.293 65.5386 137.879 65.5386V65.9722H132.254V65.5386H132.547C132.977 65.5464 133.344 65.4644 133.648 65.2925C133.797 65.2065 133.91 65.0659 133.988 64.8706C134.074 64.6831 134.117 64.1987 134.117 63.4175V53.269C134.117 52.5737 134.086 52.1323 134.023 51.9448C133.961 51.7573 133.859 51.6167 133.719 51.5229C133.586 51.4292 133.402 51.3823 133.168 51.3823C132.98 51.3823 132.742 51.437 132.453 51.5464L132.312 51.1714ZM136.062 53.0347V57.0425C136.062 57.9097 136.098 58.48 136.168 58.7534C136.277 59.2065 136.543 59.605 136.965 59.9487C137.395 60.2925 137.934 60.4644 138.582 60.4644C139.363 60.4644 139.996 60.1597 140.48 59.5503C141.113 58.7534 141.43 57.6323 141.43 56.187C141.43 54.5464 141.07 53.2847 140.352 52.4019C139.852 51.7925 139.258 51.4878 138.57 51.4878C138.195 51.4878 137.824 51.5815 137.457 51.769C137.176 51.9097 136.711 52.3315 136.062 53.0347ZM148.203 46.5776V50.105H150.711V50.9253H148.203V57.8862C148.203 58.5815 148.301 59.0503 148.496 59.2925C148.699 59.5347 148.957 59.6558 149.27 59.6558C149.527 59.6558 149.777 59.5776 150.02 59.4214C150.262 59.2573 150.449 59.019 150.582 58.7065H151.039C150.766 59.4722 150.379 60.0503 149.879 60.4409C149.379 60.8237 148.863 61.0151 148.332 61.0151C147.973 61.0151 147.621 60.9175 147.277 60.7222C146.934 60.519 146.68 60.2339 146.516 59.8667C146.352 59.4917 146.27 58.9175 146.27 58.144V50.9253H144.57V50.5386C145 50.3667 145.438 50.0776 145.883 49.6714C146.336 49.2573 146.738 48.769 147.09 48.2065C147.27 47.9097 147.52 47.3667 147.84 46.5776H148.203ZM154.32 49.7651C154.68 49.7651 154.984 49.8901 155.234 50.1401C155.492 50.3901 155.621 50.6948 155.621 51.0542C155.621 51.4136 155.492 51.7222 155.234 51.98C154.984 52.23 154.68 52.355 154.32 52.355C153.961 52.355 153.652 52.23 153.395 51.98C153.145 51.7222 153.02 51.4136 153.02 51.0542C153.02 50.6948 153.145 50.3901 153.395 50.1401C153.652 49.8901 153.961 49.7651 154.32 49.7651ZM152.68 64.8354V64.3198C153.484 64.0542 154.105 63.6401 154.543 63.0776C154.988 62.5229 155.211 61.9331 155.211 61.3081C155.211 61.1597 155.176 61.0347 155.105 60.9331C155.051 60.8628 154.996 60.8276 154.941 60.8276C154.855 60.8276 154.668 60.9058 154.379 61.062C154.238 61.1323 154.09 61.1675 153.934 61.1675C153.551 61.1675 153.246 61.0542 153.02 60.8276C152.793 60.6011 152.68 60.2886 152.68 59.8901C152.68 59.5073 152.824 59.1792 153.113 58.9058C153.41 58.6323 153.77 58.4956 154.191 58.4956C154.707 58.4956 155.164 58.7222 155.562 59.1753C155.969 59.6206 156.172 60.2144 156.172 60.9565C156.172 61.7612 155.891 62.5073 155.328 63.1948C154.773 63.8901 153.891 64.437 152.68 64.8354ZM32.0469 77.9644C32.8594 77.9644 33.5508 78.2534 34.1211 78.8315C34.6992 79.4019 34.9883 80.0933 34.9883 80.9058C34.9883 81.7183 34.6992 82.4136 34.1211 82.9917C33.5508 83.562 32.8594 83.8472 32.0469 83.8472C31.2344 83.8472 30.5391 83.562 29.9609 82.9917C29.3906 82.4136 29.1055 81.7183 29.1055 80.9058C29.1055 80.0933 29.3906 79.4019 29.9609 78.8315C30.5312 78.2534 31.2266 77.9644 32.0469 77.9644ZM54.9219 81.3979V86.0269C54.9219 87.0269 55.0312 87.6479 55.25 87.8901C55.5469 88.2339 55.9961 88.4058 56.5977 88.4058H57.207V88.8394H50.3984V88.4058H50.9961C51.668 88.4058 52.1484 88.187 52.4375 87.7495C52.5938 87.5073 52.6719 86.9331 52.6719 86.0269V75.7612C52.6719 74.7612 52.5664 74.1401 52.3555 73.8979C52.0508 73.5542 51.5977 73.3823 50.9961 73.3823H50.3984V72.9487H56.2227C57.6445 72.9487 58.7656 73.0972 59.5859 73.394C60.4062 73.6831 61.0977 74.1753 61.6602 74.8706C62.2227 75.5659 62.5039 76.3901 62.5039 77.3433C62.5039 78.6401 62.0742 79.6948 61.2148 80.5073C60.3633 81.3198 59.1562 81.7261 57.5938 81.7261C57.2109 81.7261 56.7969 81.6987 56.3516 81.644C55.9062 81.5894 55.4297 81.5073 54.9219 81.3979ZM54.9219 80.73C55.3359 80.8081 55.7031 80.8667 56.0234 80.9058C56.3438 80.9448 56.6172 80.9644 56.8438 80.9644C57.6562 80.9644 58.3555 80.6519 58.9414 80.0269C59.5352 79.394 59.832 78.5776 59.832 77.5776C59.832 76.8901 59.6914 76.2534 59.4102 75.6675C59.1289 75.0737 58.7305 74.6323 58.2148 74.3433C57.6992 74.0464 57.1133 73.8979 56.457 73.8979C56.0586 73.8979 55.5469 73.9722 54.9219 74.1206V80.73ZM63.5 78.105H68.5039V78.5386H68.2578C67.9062 78.5386 67.6406 78.6167 67.4609 78.7729C67.2891 78.9214 67.2031 79.1089 67.2031 79.3354C67.2031 79.6401 67.332 80.062 67.5898 80.6011L70.2031 86.0151L72.6055 80.0854C72.7383 79.7651 72.8047 79.4487 72.8047 79.1362C72.8047 78.9956 72.7773 78.8901 72.7227 78.8198C72.6602 78.7339 72.5625 78.6675 72.4297 78.6206C72.2969 78.5659 72.0625 78.5386 71.7266 78.5386V78.105H75.2188V78.5386C74.9297 78.5698 74.707 78.6323 74.5508 78.7261C74.3945 78.8198 74.2227 78.9956 74.0352 79.2534C73.9648 79.3628 73.832 79.6636 73.6367 80.1558L69.2656 90.8667C68.8438 91.9058 68.2891 92.6909 67.6016 93.2222C66.9219 93.7534 66.2656 94.019 65.6328 94.019C65.1719 94.019 64.793 93.8862 64.4961 93.6206C64.1992 93.355 64.0508 93.0503 64.0508 92.7065C64.0508 92.3784 64.1562 92.1128 64.3672 91.9097C64.5859 91.7144 64.8828 91.6167 65.2578 91.6167C65.5156 91.6167 65.8672 91.7026 66.3125 91.8745C66.625 91.9917 66.8203 92.0503 66.8984 92.0503C67.1328 92.0503 67.3867 91.9292 67.6602 91.687C67.9414 91.4448 68.2227 90.9761 68.5039 90.2808L69.2656 88.4175L65.4102 80.3198C65.293 80.0776 65.1055 79.7769 64.8477 79.4175C64.6523 79.144 64.4922 78.9604 64.3672 78.8667C64.1875 78.7417 63.8984 78.6323 63.5 78.5386V78.105ZM79.2266 74.5776V78.105H81.7344V78.9253H79.2266V85.8862C79.2266 86.5815 79.3242 87.0503 79.5195 87.2925C79.7227 87.5347 79.9805 87.6558 80.293 87.6558C80.5508 87.6558 80.8008 87.5776 81.043 87.4214C81.2852 87.2573 81.4727 87.019 81.6055 86.7065H82.0625C81.7891 87.4722 81.4023 88.0503 80.9023 88.4409C80.4023 88.8237 79.8867 89.0151 79.3555 89.0151C78.9961 89.0151 78.6445 88.9175 78.3008 88.7222C77.957 88.519 77.7031 88.2339 77.5391 87.8667C77.375 87.4917 77.293 86.9175 77.293 86.144V78.9253H75.5938V78.5386C76.0234 78.3667 76.4609 78.0776 76.9062 77.6714C77.3594 77.2573 77.7617 76.769 78.1133 76.2065C78.293 75.9097 78.543 75.3667 78.8633 74.5776H79.2266ZM85.9414 72.1753V80.0269C86.8086 79.0737 87.4961 78.4644 88.0039 78.1987C88.5117 77.9253 89.0195 77.7886 89.5273 77.7886C90.1367 77.7886 90.6602 77.9565 91.0977 78.2925C91.5352 78.6284 91.8594 79.1558 92.0703 79.8745C92.2188 80.3745 92.293 81.2886 92.293 82.6167V86.4136C92.293 87.0933 92.3477 87.5581 92.457 87.8081C92.5352 87.9956 92.668 88.144 92.8555 88.2534C93.043 88.3628 93.3867 88.4175 93.8867 88.4175V88.8394H88.6133V88.4175H88.8594C89.3594 88.4175 89.707 88.3433 89.9023 88.1948C90.0977 88.0386 90.2344 87.812 90.3125 87.5151C90.3359 87.3901 90.3477 87.0229 90.3477 86.4136V82.6167C90.3477 81.4448 90.2852 80.6753 90.1602 80.3081C90.043 79.9409 89.8516 79.6675 89.5859 79.4878C89.3203 79.3003 89 79.2065 88.625 79.2065C88.2422 79.2065 87.8438 79.3081 87.4297 79.5112C87.0156 79.7144 86.5195 80.1245 85.9414 80.7417V86.4136C85.9414 87.1479 85.9805 87.605 86.0586 87.7847C86.1445 87.9644 86.2969 88.1167 86.5156 88.2417C86.7422 88.3589 87.1289 88.4175 87.6758 88.4175V88.8394H82.3555V88.4175C82.832 88.4175 83.207 88.3433 83.4805 88.1948C83.6367 88.1167 83.7617 87.9683 83.8555 87.7495C83.9492 87.5308 83.9961 87.0854 83.9961 86.4136V76.6987C83.9961 75.4722 83.9648 74.7183 83.9023 74.437C83.8477 74.1558 83.7578 73.9644 83.6328 73.8628C83.5156 73.7612 83.3555 73.7104 83.1523 73.7104C82.9883 73.7104 82.7227 73.7729 82.3555 73.8979L82.1914 73.4878L85.4023 72.1753H85.9414ZM100.039 77.7886C101.664 77.7886 102.969 78.4058 103.953 79.6401C104.789 80.6948 105.207 81.9058 105.207 83.2729C105.207 84.2339 104.977 85.2065 104.516 86.1909C104.055 87.1753 103.418 87.9175 102.605 88.4175C101.801 88.9175 100.902 89.1675 99.9102 89.1675C98.293 89.1675 97.0078 88.5229 96.0547 87.2339C95.25 86.1479 94.8477 84.9292 94.8477 83.5776C94.8477 82.5933 95.0898 81.6167 95.5742 80.6479C96.0664 79.6714 96.7109 78.9526 97.5078 78.4917C98.3047 78.0229 99.1484 77.7886 100.039 77.7886ZM99.6758 78.5503C99.2617 78.5503 98.8438 78.6753 98.4219 78.9253C98.0078 79.1675 97.6719 79.5972 97.4141 80.2144C97.1562 80.8315 97.0273 81.6245 97.0273 82.5933C97.0273 84.1558 97.3359 85.5034 97.9531 86.6362C98.5781 87.769 99.3984 88.3354 100.414 88.3354C101.172 88.3354 101.797 88.0229 102.289 87.3979C102.781 86.7729 103.027 85.6987 103.027 84.1753C103.027 82.269 102.617 80.769 101.797 79.6753C101.242 78.9253 100.535 78.5503 99.6758 78.5503ZM109.918 80.062C111.176 78.5464 112.375 77.7886 113.516 77.7886C114.102 77.7886 114.605 77.937 115.027 78.2339C115.449 78.5229 115.785 79.0034 116.035 79.6753C116.207 80.144 116.293 80.8628 116.293 81.8315V86.4136C116.293 87.0933 116.348 87.5542 116.457 87.7964C116.543 87.9917 116.68 88.144 116.867 88.2534C117.062 88.3628 117.418 88.4175 117.934 88.4175V88.8394H112.625V88.4175H112.848C113.348 88.4175 113.695 88.3433 113.891 88.1948C114.094 88.0386 114.234 87.812 114.312 87.5151C114.344 87.3979 114.359 87.0308 114.359 86.4136V82.019C114.359 81.0425 114.23 80.3354 113.973 79.8979C113.723 79.4526 113.297 79.23 112.695 79.23C111.766 79.23 110.84 79.7378 109.918 80.7534V86.4136C109.918 87.1401 109.961 87.5894 110.047 87.7612C110.156 87.9878 110.305 88.1558 110.492 88.2651C110.688 88.3667 111.078 88.4175 111.664 88.4175V88.8394H106.355V88.4175H106.59C107.137 88.4175 107.504 88.2808 107.691 88.0073C107.887 87.7261 107.984 87.1948 107.984 86.4136V82.4292C107.984 81.1401 107.953 80.355 107.891 80.0737C107.836 79.7925 107.746 79.6011 107.621 79.4995C107.504 79.3979 107.344 79.3472 107.141 79.3472C106.922 79.3472 106.66 79.4058 106.355 79.5229L106.18 79.1011L109.414 77.7886H109.918V80.062ZM121.344 77.7651C121.703 77.7651 122.008 77.8901 122.258 78.1401C122.516 78.3901 122.645 78.6948 122.645 79.0542C122.645 79.4136 122.516 79.7222 122.258 79.98C122.008 80.23 121.703 80.355 121.344 80.355C120.984 80.355 120.676 80.23 120.418 79.98C120.168 79.7222 120.043 79.4136 120.043 79.0542C120.043 78.6948 120.168 78.3901 120.418 78.1401C120.676 77.8901 120.984 77.7651 121.344 77.7651ZM119.703 92.8354V92.3198C120.508 92.0542 121.129 91.6401 121.566 91.0776C122.012 90.5229 122.234 89.9331 122.234 89.3081C122.234 89.1597 122.199 89.0347 122.129 88.9331C122.074 88.8628 122.02 88.8276 121.965 88.8276C121.879 88.8276 121.691 88.9058 121.402 89.062C121.262 89.1323 121.113 89.1675 120.957 89.1675C120.574 89.1675 120.27 89.0542 120.043 88.8276C119.816 88.6011 119.703 88.2886 119.703 87.8901C119.703 87.5073 119.848 87.1792 120.137 86.9058C120.434 86.6323 120.793 86.4956 121.215 86.4956C121.73 86.4956 122.188 86.7222 122.586 87.1753C122.992 87.6206 123.195 88.2144 123.195 88.9565C123.195 89.7612 122.914 90.5073 122.352 91.1948C121.797 91.8901 120.914 92.437 119.703 92.8354Z" fill="black"/>
</g>
<defs>
<filter id="filter0_d_14_247" x="0" y="0.839355" width="172" height="112" filterUnits="userSpaceOnUse" color-interpolation-filters="sRGB">
<feFlood flood-opacity="0" result="BackgroundImageFix"/>
<feColorMatrix in="SourceAlpha" type="matrix" values="0 0 0 0 0 0 0 0 0 0 0 0 0 0 0 0 0 0 127 0" result="hardAlpha"/>
<feOffset dy="4"/>
<feGaussianBlur stdDeviation="2"/>
<feComposite in2="hardAlpha" operator="out"/>
<feColorMatrix type="matrix" values="0 0 0 0 0 0 0 0 0 0 0 0 0 0 0 0 0 0 0.25 0"/>
<feBlend mode="normal" in2="BackgroundImageFix" result="effect1_dropShadow_14_247"/>
<feBlend mode="normal" in="SourceGraphic" in2="effect1_dropShadow_14_247" result="shape"/>
</filter>
</defs>
</svg>
