<svg width="172" height="113" viewBox="0 0 172 113" fill="none" xmlns="http://www.w3.org/2000/svg">
<g filter="url(#filter0_d_14_247)">
<rect x="4" y="0.643066" width="164" height="104" rx="20" fill="black" fill-opacity="0.13" shape-rendering="crispEdges"/>
<path d="M32.0469 21.7681C32.8594 21.7681 33.5508 22.0571 34.1211 22.6353C34.6992 23.2056 34.9883 23.897 34.9883 24.7095C34.9883 25.522 34.6992 26.2173 34.1211 26.7954C33.5508 27.3657 32.8594 27.6509 32.0469 27.6509C31.2344 27.6509 30.5391 27.3657 29.9609 26.7954C29.3906 26.2173 29.1055 25.522 29.1055 24.7095C29.1055 23.897 29.3906 23.2056 29.9609 22.6353C30.5312 22.0571 31.2266 21.7681 32.0469 21.7681ZM49.6836 16.7524H53.9961L63.7109 28.6704V19.5063C63.7109 18.5298 63.6016 17.9204 63.3828 17.6782C63.0938 17.3501 62.6367 17.186 62.0117 17.186H61.4609V16.7524H66.9922V17.186H66.4297C65.7578 17.186 65.2812 17.3892 65 17.7954C64.8281 18.0454 64.7422 18.6157 64.7422 19.5063V32.9009H64.3203L53.8438 20.104V29.8892C53.8438 30.8657 53.9492 31.4751 54.1602 31.7173C54.457 32.0454 54.9141 32.2095 55.5312 32.2095H56.0938V32.6431H50.5625V32.2095H51.1133C51.793 32.2095 52.2734 32.0063 52.5547 31.6001C52.7266 31.3501 52.8125 30.7798 52.8125 29.8892V18.8384C52.3516 18.2993 52 17.9438 51.7578 17.772C51.5234 17.6001 51.1758 17.4399 50.7148 17.2915C50.4883 17.2212 50.1445 17.186 49.6836 17.186V16.7524ZM73.3438 21.5923C74.9688 21.5923 76.2734 22.2095 77.2578 23.4438C78.0938 24.4985 78.5117 25.7095 78.5117 27.0767C78.5117 28.0376 78.2812 29.0103 77.8203 29.9946C77.3594 30.979 76.7227 31.7212 75.9102 32.2212C75.1055 32.7212 74.207 32.9712 73.2148 32.9712C71.5977 32.9712 70.3125 32.3267 69.3594 31.0376C68.5547 29.9517 68.1523 28.7329 68.1523 27.3813C68.1523 26.397 68.3945 25.4204 68.8789 24.4517C69.3711 23.4751 70.0156 22.7563 70.8125 22.2954C71.6094 21.8267 72.4531 21.5923 73.3438 21.5923ZM72.9805 22.354C72.5664 22.354 72.1484 22.479 71.7266 22.729C71.3125 22.9712 70.9766 23.4009 70.7188 24.0181C70.4609 24.6353 70.332 25.4282 70.332 26.397C70.332 27.9595 70.6406 29.3071 71.2578 30.4399C71.8828 31.5728 72.7031 32.1392 73.7188 32.1392C74.4766 32.1392 75.1016 31.8267 75.5938 31.2017C76.0859 30.5767 76.332 29.5024 76.332 27.979C76.332 26.0728 75.9219 24.5728 75.1016 23.479C74.5469 22.729 73.8398 22.354 72.9805 22.354ZM87.6758 31.436C87.1523 31.9829 86.6406 32.3774 86.1406 32.6196C85.6406 32.854 85.1016 32.9712 84.5234 32.9712C83.3516 32.9712 82.3281 32.4829 81.4531 31.5063C80.5781 30.522 80.1406 29.2603 80.1406 27.7212C80.1406 26.1821 80.625 24.7759 81.5938 23.5024C82.5625 22.2212 83.8086 21.5806 85.332 21.5806C86.2773 21.5806 87.0586 21.8813 87.6758 22.4829V20.5024C87.6758 19.2759 87.6445 18.522 87.582 18.2407C87.5273 17.9595 87.4375 17.7681 87.3125 17.6665C87.1875 17.5649 87.0312 17.5142 86.8438 17.5142C86.6406 17.5142 86.3711 17.5767 86.0352 17.7017L85.8828 17.2915L89.082 15.979H89.6094V28.3892C89.6094 29.647 89.6367 30.4165 89.6914 30.6978C89.7539 30.9712 89.8477 31.1626 89.9727 31.272C90.1055 31.3813 90.2578 31.436 90.4297 31.436C90.6406 31.436 90.9219 31.3696 91.2734 31.2368L91.4023 31.647L88.2148 32.9712H87.6758V31.436ZM87.6758 30.6157V25.0845C87.6289 24.5532 87.4883 24.0688 87.2539 23.6313C87.0195 23.1938 86.707 22.8657 86.3164 22.647C85.9336 22.4204 85.5586 22.3071 85.1914 22.3071C84.5039 22.3071 83.8906 22.6157 83.3516 23.2329C82.6406 24.0454 82.2852 25.2329 82.2852 26.7954C82.2852 28.3735 82.6289 29.5845 83.3164 30.4282C84.0039 31.2642 84.7695 31.6821 85.6133 31.6821C86.3242 31.6821 87.0117 31.3267 87.6758 30.6157ZM93.8984 25.9517C93.8906 27.5454 94.2773 28.7954 95.0586 29.7017C95.8398 30.6079 96.7578 31.061 97.8125 31.061C98.5156 31.061 99.125 30.8696 99.6406 30.4868C100.164 30.0962 100.602 29.4321 100.953 28.4946L101.316 28.729C101.152 29.7993 100.676 30.7759 99.8867 31.6587C99.0977 32.5337 98.1094 32.9712 96.9219 32.9712C95.6328 32.9712 94.5273 32.4712 93.6055 31.4712C92.6914 30.4634 92.2344 29.1118 92.2344 27.4165C92.2344 25.5806 92.7031 24.1509 93.6406 23.1274C94.5859 22.0962 95.7695 21.5806 97.1914 21.5806C98.3945 21.5806 99.3828 21.979 100.156 22.7759C100.93 23.5649 101.316 24.6235 101.316 25.9517H93.8984ZM93.8984 25.272H98.8672C98.8281 24.5845 98.7461 24.1001 98.6211 23.8188C98.4258 23.3813 98.1328 23.0376 97.7422 22.7876C97.3594 22.5376 96.957 22.4126 96.5352 22.4126C95.8867 22.4126 95.3047 22.6665 94.7891 23.1743C94.2812 23.6743 93.9844 24.3735 93.8984 25.272ZM105.312 21.5688C105.672 21.5688 105.977 21.6938 106.227 21.9438C106.484 22.1938 106.613 22.4985 106.613 22.8579C106.613 23.2173 106.484 23.5259 106.227 23.7837C105.977 24.0337 105.672 24.1587 105.312 24.1587C104.953 24.1587 104.645 24.0337 104.387 23.7837C104.137 23.5259 104.012 23.2173 104.012 22.8579C104.012 22.4985 104.137 22.1938 104.387 21.9438C104.645 21.6938 104.953 21.5688 105.312 21.5688ZM103.672 36.6392V36.1235C104.477 35.8579 105.098 35.4438 105.535 34.8813C105.98 34.3267 106.203 33.7368 106.203 33.1118C106.203 32.9634 106.168 32.8384 106.098 32.7368C106.043 32.6665 105.988 32.6313 105.934 32.6313C105.848 32.6313 105.66 32.7095 105.371 32.8657C105.23 32.936 105.082 32.9712 104.926 32.9712C104.543 32.9712 104.238 32.8579 104.012 32.6313C103.785 32.4048 103.672 32.0923 103.672 31.6938C103.672 31.311 103.816 30.9829 104.105 30.7095C104.402 30.436 104.762 30.2993 105.184 30.2993C105.699 30.2993 106.156 30.5259 106.555 30.979C106.961 31.4243 107.164 32.0181 107.164 32.7603C107.164 33.5649 106.883 34.311 106.32 34.9985C105.766 35.6938 104.883 36.2407 103.672 36.6392ZM32.0469 49.7681C32.8594 49.7681 33.5508 50.0571 34.1211 50.6353C34.6992 51.2056 34.9883 51.897 34.9883 52.7095C34.9883 53.522 34.6992 54.2173 34.1211 54.7954C33.5508 55.3657 32.8594 55.6509 32.0469 55.6509C31.2344 55.6509 30.5391 55.3657 29.9609 54.7954C29.3906 54.2173 29.1055 53.522 29.1055 52.7095C29.1055 51.897 29.3906 51.2056 29.9609 50.6353C30.5312 50.0571 31.2266 49.7681 32.0469 49.7681ZM63.8867 44.7524L64.0625 48.479H63.6172C63.5312 47.8228 63.4141 47.354 63.2656 47.0728C63.0234 46.6196 62.6992 46.2876 62.293 46.0767C61.8945 45.8579 61.3672 45.7485 60.7109 45.7485H58.4727V57.8892C58.4727 58.8657 58.5781 59.4751 58.7891 59.7173C59.0859 60.0454 59.543 60.2095 60.1602 60.2095H60.7109V60.6431H53.9727V60.2095H54.5352C55.207 60.2095 55.6836 60.0063 55.9648 59.6001C56.1367 59.3501 56.2227 58.7798 56.2227 57.8892V45.7485H54.3125C53.5703 45.7485 53.043 45.8032 52.7305 45.9126C52.3242 46.061 51.9766 46.3462 51.6875 46.7681C51.3984 47.1899 51.2266 47.7603 51.1719 48.479H50.7266L50.9141 44.7524H63.8867ZM63.125 49.9087H68.1289V50.3423H67.8828C67.5312 50.3423 67.2656 50.4204 67.0859 50.5767C66.9141 50.7251 66.8281 50.9126 66.8281 51.1392C66.8281 51.4438 66.957 51.8657 67.2148 52.4048L69.8281 57.8188L72.2305 51.8892C72.3633 51.5688 72.4297 51.2524 72.4297 50.9399C72.4297 50.7993 72.4023 50.6938 72.3477 50.6235C72.2852 50.5376 72.1875 50.4712 72.0547 50.4243C71.9219 50.3696 71.6875 50.3423 71.3516 50.3423V49.9087H74.8438V50.3423C74.5547 50.3735 74.332 50.436 74.1758 50.5298C74.0195 50.6235 73.8477 50.7993 73.6602 51.0571C73.5898 51.1665 73.457 51.4673 73.2617 51.9595L68.8906 62.6704C68.4688 63.7095 67.9141 64.4946 67.2266 65.0259C66.5469 65.5571 65.8906 65.8228 65.2578 65.8228C64.7969 65.8228 64.418 65.6899 64.1211 65.4243C63.8242 65.1587 63.6758 64.854 63.6758 64.5103C63.6758 64.1821 63.7812 63.9165 63.9922 63.7134C64.2109 63.5181 64.5078 63.4204 64.8828 63.4204C65.1406 63.4204 65.4922 63.5063 65.9375 63.6782C66.25 63.7954 66.4453 63.854 66.5234 63.854C66.7578 63.854 67.0117 63.7329 67.2852 63.4907C67.5664 63.2485 67.8477 62.7798 68.1289 62.0845L68.8906 60.2212L65.0352 52.1235C64.918 51.8813 64.7305 51.5806 64.4727 51.2212C64.2773 50.9478 64.1172 50.7642 63.9922 50.6704C63.8125 50.5454 63.5234 50.436 63.125 50.3423V49.9087ZM74.9609 50.9751L78.2656 49.6392H78.7109V52.147C79.2656 51.2017 79.8203 50.5415 80.375 50.1665C80.9375 49.7837 81.5273 49.5923 82.1445 49.5923C83.2227 49.5923 84.1211 50.0142 84.8398 50.8579C85.7227 51.8892 86.1641 53.2329 86.1641 54.8892C86.1641 56.7407 85.6328 58.272 84.5703 59.4829C83.6953 60.4751 82.5938 60.9712 81.2656 60.9712C80.6875 60.9712 80.1875 60.8892 79.7656 60.7251C79.4531 60.6079 79.1016 60.3735 78.7109 60.022V63.2915C78.7109 64.0259 78.7539 64.4907 78.8398 64.686C78.9336 64.8892 79.0898 65.0493 79.3086 65.1665C79.5352 65.2837 79.9414 65.3423 80.5273 65.3423V65.7759H74.9023V65.3423H75.1953C75.625 65.3501 75.9922 65.2681 76.2969 65.0962C76.4453 65.0103 76.5586 64.8696 76.6367 64.6743C76.7227 64.4868 76.7656 64.0024 76.7656 63.2212V53.0728C76.7656 52.3774 76.7344 51.936 76.6719 51.7485C76.6094 51.561 76.5078 51.4204 76.3672 51.3267C76.2344 51.2329 76.0508 51.186 75.8164 51.186C75.6289 51.186 75.3906 51.2407 75.1016 51.3501L74.9609 50.9751ZM78.7109 52.8384V56.8462C78.7109 57.7134 78.7461 58.2837 78.8164 58.5571C78.9258 59.0103 79.1914 59.4087 79.6133 59.7524C80.043 60.0962 80.582 60.2681 81.2305 60.2681C82.0117 60.2681 82.6445 59.9634 83.1289 59.354C83.7617 58.5571 84.0781 57.436 84.0781 55.9907C84.0781 54.3501 83.7188 53.0884 83 52.2056C82.5 51.5962 81.9062 51.2915 81.2188 51.2915C80.8438 51.2915 80.4727 51.3853 80.1055 51.5728C79.8242 51.7134 79.3594 52.1353 78.7109 52.8384ZM89.5391 53.9517C89.5312 55.5454 89.918 56.7954 90.6992 57.7017C91.4805 58.6079 92.3984 59.061 93.4531 59.061C94.1562 59.061 94.7656 58.8696 95.2812 58.4868C95.8047 58.0962 96.2422 57.4321 96.5938 56.4946L96.957 56.729C96.793 57.7993 96.3164 58.7759 95.5273 59.6587C94.7383 60.5337 93.75 60.9712 92.5625 60.9712C91.2734 60.9712 90.168 60.4712 89.2461 59.4712C88.332 58.4634 87.875 57.1118 87.875 55.4165C87.875 53.5806 88.3438 52.1509 89.2812 51.1274C90.2266 50.0962 91.4102 49.5806 92.832 49.5806C94.0352 49.5806 95.0234 49.979 95.7969 50.7759C96.5703 51.5649 96.957 52.6235 96.957 53.9517H89.5391ZM89.5391 53.272H94.5078C94.4688 52.5845 94.3867 52.1001 94.2617 51.8188C94.0664 51.3813 93.7734 51.0376 93.3828 50.7876C93 50.5376 92.5977 50.4126 92.1758 50.4126C91.5273 50.4126 90.9453 50.6665 90.4297 51.1743C89.9219 51.6743 89.625 52.3735 89.5391 53.272ZM105.336 49.5923V53.2485H104.949C104.652 52.1001 104.27 51.3188 103.801 50.9048C103.34 50.4907 102.75 50.2837 102.031 50.2837C101.484 50.2837 101.043 50.4282 100.707 50.7173C100.371 51.0063 100.203 51.3267 100.203 51.6782C100.203 52.1157 100.328 52.4907 100.578 52.8032C100.82 53.1235 101.312 53.4634 102.055 53.8228L103.766 54.6548C105.352 55.4282 106.145 56.4478 106.145 57.7134C106.145 58.6899 105.773 59.479 105.031 60.0806C104.297 60.6743 103.473 60.9712 102.559 60.9712C101.902 60.9712 101.152 60.854 100.309 60.6196C100.051 60.5415 99.8398 60.5024 99.6758 60.5024C99.4961 60.5024 99.3555 60.604 99.2539 60.8071H98.8672V56.9751H99.2539C99.4727 58.0688 99.8906 58.8931 100.508 59.4478C101.125 60.0024 101.816 60.2798 102.582 60.2798C103.121 60.2798 103.559 60.1235 103.895 59.811C104.238 59.4907 104.41 59.1079 104.41 58.6626C104.41 58.1235 104.219 57.6704 103.836 57.3032C103.461 56.936 102.707 56.4712 101.574 55.9087C100.441 55.3462 99.6992 54.8384 99.3477 54.3853C98.9961 53.9399 98.8203 53.3774 98.8203 52.6978C98.8203 51.8149 99.1211 51.0767 99.7227 50.4829C100.332 49.8892 101.117 49.5923 102.078 49.5923C102.5 49.5923 103.012 49.6821 103.613 49.8618C104.012 49.979 104.277 50.0376 104.41 50.0376C104.535 50.0376 104.633 50.0103 104.703 49.9556C104.773 49.9009 104.855 49.7798 104.949 49.5923H105.336ZM116.867 56.5649C116.578 57.979 116.012 59.0688 115.168 59.8345C114.324 60.5923 113.391 60.9712 112.367 60.9712C111.148 60.9712 110.086 60.4595 109.18 59.436C108.273 58.4126 107.82 57.0298 107.82 55.2876C107.82 53.6001 108.32 52.229 109.32 51.1743C110.328 50.1196 111.535 49.5923 112.941 49.5923C113.996 49.5923 114.863 49.8735 115.543 50.436C116.223 50.9907 116.562 51.5688 116.562 52.1704C116.562 52.4673 116.465 52.7095 116.27 52.897C116.082 53.0767 115.816 53.1665 115.473 53.1665C115.012 53.1665 114.664 53.0181 114.43 52.7212C114.297 52.5571 114.207 52.2446 114.16 51.7837C114.121 51.3228 113.965 50.9712 113.691 50.729C113.418 50.4946 113.039 50.3774 112.555 50.3774C111.773 50.3774 111.145 50.6665 110.668 51.2446C110.035 52.0103 109.719 53.022 109.719 54.2798C109.719 55.561 110.031 56.6938 110.656 57.6782C111.289 58.6548 112.141 59.1431 113.211 59.1431C113.977 59.1431 114.664 58.8813 115.273 58.3579C115.703 57.9985 116.121 57.3462 116.527 56.4009L116.867 56.5649ZM121.555 49.5923V52.0063C122.453 50.397 123.375 49.5923 124.32 49.5923C124.75 49.5923 125.105 49.7251 125.387 49.9907C125.668 50.2485 125.809 50.5493 125.809 50.8931C125.809 51.1978 125.707 51.4556 125.504 51.6665C125.301 51.8774 125.059 51.9829 124.777 51.9829C124.504 51.9829 124.195 51.8501 123.852 51.5845C123.516 51.311 123.266 51.1743 123.102 51.1743C122.961 51.1743 122.809 51.2524 122.645 51.4087C122.293 51.729 121.93 52.2563 121.555 52.9907V58.1353C121.555 58.729 121.629 59.1782 121.777 59.4829C121.879 59.6938 122.059 59.8696 122.316 60.0103C122.574 60.1509 122.945 60.2212 123.43 60.2212V60.6431H117.934V60.2212C118.48 60.2212 118.887 60.1353 119.152 59.9634C119.348 59.8384 119.484 59.6392 119.562 59.3657C119.602 59.2329 119.621 58.854 119.621 58.229V54.0688C119.621 52.8188 119.594 52.0767 119.539 51.8423C119.492 51.6001 119.398 51.4243 119.258 51.3149C119.125 51.2056 118.957 51.1509 118.754 51.1509C118.512 51.1509 118.238 51.2095 117.934 51.3267L117.816 50.9048L121.062 49.5923H121.555ZM129.137 43.979C129.465 43.979 129.742 44.0962 129.969 44.3306C130.203 44.5571 130.32 44.8345 130.32 45.1626C130.32 45.4907 130.203 45.772 129.969 46.0063C129.742 46.2407 129.465 46.3579 129.137 46.3579C128.809 46.3579 128.527 46.2407 128.293 46.0063C128.059 45.772 127.941 45.4907 127.941 45.1626C127.941 44.8345 128.055 44.5571 128.281 44.3306C128.516 44.0962 128.801 43.979 129.137 43.979ZM130.109 49.5923V58.2173C130.109 58.8892 130.156 59.3384 130.25 59.5649C130.352 59.7837 130.496 59.9478 130.684 60.0571C130.879 60.1665 131.23 60.2212 131.738 60.2212V60.6431H126.523V60.2212C127.047 60.2212 127.398 60.1704 127.578 60.0688C127.758 59.9673 127.898 59.7993 128 59.5649C128.109 59.3306 128.164 58.8813 128.164 58.2173V54.0806C128.164 52.9165 128.129 52.1626 128.059 51.8188C128.004 51.5688 127.918 51.397 127.801 51.3032C127.684 51.2017 127.523 51.1509 127.32 51.1509C127.102 51.1509 126.836 51.2095 126.523 51.3267L126.359 50.9048L129.594 49.5923H130.109ZM132.312 50.9751L135.617 49.6392H136.062V52.147C136.617 51.2017 137.172 50.5415 137.727 50.1665C138.289 49.7837 138.879 49.5923 139.496 49.5923C140.574 49.5923 141.473 50.0142 142.191 50.8579C143.074 51.8892 143.516 53.2329 143.516 54.8892C143.516 56.7407 142.984 58.272 141.922 59.4829C141.047 60.4751 139.945 60.9712 138.617 60.9712C138.039 60.9712 137.539 60.8892 137.117 60.7251C136.805 60.6079 136.453 60.3735 136.062 60.022V63.2915C136.062 64.0259 136.105 64.4907 136.191 64.686C136.285 64.8892 136.441 65.0493 136.66 65.1665C136.887 65.2837 137.293 65.3423 137.879 65.3423V65.7759H132.254V65.3423H132.547C132.977 65.3501 133.344 65.2681 133.648 65.0962C133.797 65.0103 133.91 64.8696 133.988 64.6743C134.074 64.4868 134.117 64.0024 134.117 63.2212V53.0728C134.117 52.3774 134.086 51.936 134.023 51.7485C133.961 51.561 133.859 51.4204 133.719 51.3267C133.586 51.2329 133.402 51.186 133.168 51.186C132.98 51.186 132.742 51.2407 132.453 51.3501L132.312 50.9751ZM136.062 52.8384V56.8462C136.062 57.7134 136.098 58.2837 136.168 58.5571C136.277 59.0103 136.543 59.4087 136.965 59.7524C137.395 60.0962 137.934 60.2681 138.582 60.2681C139.363 60.2681 139.996 59.9634 140.48 59.354C141.113 58.5571 141.43 57.436 141.43 55.9907C141.43 54.3501 141.07 53.0884 140.352 52.2056C139.852 51.5962 139.258 51.2915 138.57 51.2915C138.195 51.2915 137.824 51.3853 137.457 51.5728C137.176 51.7134 136.711 52.1353 136.062 52.8384ZM148.203 46.3813V49.9087H150.711V50.729H148.203V57.6899C148.203 58.3853 148.301 58.854 148.496 59.0962C148.699 59.3384 148.957 59.4595 149.27 59.4595C149.527 59.4595 149.777 59.3813 150.02 59.2251C150.262 59.061 150.449 58.8228 150.582 58.5103H151.039C150.766 59.2759 150.379 59.854 149.879 60.2446C149.379 60.6274 148.863 60.8188 148.332 60.8188C147.973 60.8188 147.621 60.7212 147.277 60.5259C146.934 60.3228 146.68 60.0376 146.516 59.6704C146.352 59.2954 146.27 58.7212 146.27 57.9478V50.729H144.57V50.3423C145 50.1704 145.438 49.8813 145.883 49.4751C146.336 49.061 146.738 48.5728 147.09 48.0103C147.27 47.7134 147.52 47.1704 147.84 46.3813H148.203ZM154.32 49.5688C154.68 49.5688 154.984 49.6938 155.234 49.9438C155.492 50.1938 155.621 50.4985 155.621 50.8579C155.621 51.2173 155.492 51.5259 155.234 51.7837C154.984 52.0337 154.68 52.1587 154.32 52.1587C153.961 52.1587 153.652 52.0337 153.395 51.7837C153.145 51.5259 153.02 51.2173 153.02 50.8579C153.02 50.4985 153.145 50.1938 153.395 49.9438C153.652 49.6938 153.961 49.5688 154.32 49.5688ZM152.68 64.6392V64.1235C153.484 63.8579 154.105 63.4438 154.543 62.8813C154.988 62.3267 155.211 61.7368 155.211 61.1118C155.211 60.9634 155.176 60.8384 155.105 60.7368C155.051 60.6665 154.996 60.6313 154.941 60.6313C154.855 60.6313 154.668 60.7095 154.379 60.8657C154.238 60.936 154.09 60.9712 153.934 60.9712C153.551 60.9712 153.246 60.8579 153.02 60.6313C152.793 60.4048 152.68 60.0923 152.68 59.6938C152.68 59.311 152.824 58.9829 153.113 58.7095C153.41 58.436 153.77 58.2993 154.191 58.2993C154.707 58.2993 155.164 58.5259 155.562 58.979C155.969 59.4243 156.172 60.0181 156.172 60.7603C156.172 61.5649 155.891 62.311 155.328 62.9985C154.773 63.6938 153.891 64.2407 152.68 64.6392ZM32.0469 77.7681C32.8594 77.7681 33.5508 78.0571 34.1211 78.6353C34.6992 79.2056 34.9883 79.897 34.9883 80.7095C34.9883 81.522 34.6992 82.2173 34.1211 82.7954C33.5508 83.3657 32.8594 83.6509 32.0469 83.6509C31.2344 83.6509 30.5391 83.3657 29.9609 82.7954C29.3906 82.2173 29.1055 81.522 29.1055 80.7095C29.1055 79.897 29.3906 79.2056 29.9609 78.6353C30.5312 78.0571 31.2266 77.7681 32.0469 77.7681ZM54.9219 81.2017V85.8306C54.9219 86.8306 55.0312 87.4517 55.25 87.6938C55.5469 88.0376 55.9961 88.2095 56.5977 88.2095H57.207V88.6431H50.3984V88.2095H50.9961C51.668 88.2095 52.1484 87.9907 52.4375 87.5532C52.5938 87.311 52.6719 86.7368 52.6719 85.8306V75.5649C52.6719 74.5649 52.5664 73.9438 52.3555 73.7017C52.0508 73.3579 51.5977 73.186 50.9961 73.186H50.3984V72.7524H56.2227C57.6445 72.7524 58.7656 72.9009 59.5859 73.1978C60.4062 73.4868 61.0977 73.979 61.6602 74.6743C62.2227 75.3696 62.5039 76.1938 62.5039 77.147C62.5039 78.4438 62.0742 79.4985 61.2148 80.311C60.3633 81.1235 59.1562 81.5298 57.5938 81.5298C57.2109 81.5298 56.7969 81.5024 56.3516 81.4478C55.9062 81.3931 55.4297 81.311 54.9219 81.2017ZM54.9219 80.5337C55.3359 80.6118 55.7031 80.6704 56.0234 80.7095C56.3438 80.7485 56.6172 80.7681 56.8438 80.7681C57.6562 80.7681 58.3555 80.4556 58.9414 79.8306C59.5352 79.1978 59.832 78.3813 59.832 77.3813C59.832 76.6938 59.6914 76.0571 59.4102 75.4712C59.1289 74.8774 58.7305 74.436 58.2148 74.147C57.6992 73.8501 57.1133 73.7017 56.457 73.7017C56.0586 73.7017 55.5469 73.7759 54.9219 73.9243V80.5337ZM63.5 77.9087H68.5039V78.3423H68.2578C67.9062 78.3423 67.6406 78.4204 67.4609 78.5767C67.2891 78.7251 67.2031 78.9126 67.2031 79.1392C67.2031 79.4438 67.332 79.8657 67.5898 80.4048L70.2031 85.8188L72.6055 79.8892C72.7383 79.5688 72.8047 79.2524 72.8047 78.9399C72.8047 78.7993 72.7773 78.6938 72.7227 78.6235C72.6602 78.5376 72.5625 78.4712 72.4297 78.4243C72.2969 78.3696 72.0625 78.3423 71.7266 78.3423V77.9087H75.2188V78.3423C74.9297 78.3735 74.707 78.436 74.5508 78.5298C74.3945 78.6235 74.2227 78.7993 74.0352 79.0571C73.9648 79.1665 73.832 79.4673 73.6367 79.9595L69.2656 90.6704C68.8438 91.7095 68.2891 92.4946 67.6016 93.0259C66.9219 93.5571 66.2656 93.8228 65.6328 93.8228C65.1719 93.8228 64.793 93.6899 64.4961 93.4243C64.1992 93.1587 64.0508 92.854 64.0508 92.5103C64.0508 92.1821 64.1562 91.9165 64.3672 91.7134C64.5859 91.5181 64.8828 91.4204 65.2578 91.4204C65.5156 91.4204 65.8672 91.5063 66.3125 91.6782C66.625 91.7954 66.8203 91.854 66.8984 91.854C67.1328 91.854 67.3867 91.7329 67.6602 91.4907C67.9414 91.2485 68.2227 90.7798 68.5039 90.0845L69.2656 88.2212L65.4102 80.1235C65.293 79.8813 65.1055 79.5806 64.8477 79.2212C64.6523 78.9478 64.4922 78.7642 64.3672 78.6704C64.1875 78.5454 63.8984 78.436 63.5 78.3423V77.9087ZM79.2266 74.3813V77.9087H81.7344V78.729H79.2266V85.6899C79.2266 86.3853 79.3242 86.854 79.5195 87.0962C79.7227 87.3384 79.9805 87.4595 80.293 87.4595C80.5508 87.4595 80.8008 87.3813 81.043 87.2251C81.2852 87.061 81.4727 86.8228 81.6055 86.5103H82.0625C81.7891 87.2759 81.4023 87.854 80.9023 88.2446C80.4023 88.6274 79.8867 88.8188 79.3555 88.8188C78.9961 88.8188 78.6445 88.7212 78.3008 88.5259C77.957 88.3228 77.7031 88.0376 77.5391 87.6704C77.375 87.2954 77.293 86.7212 77.293 85.9478V78.729H75.5938V78.3423C76.0234 78.1704 76.4609 77.8813 76.9062 77.4751C77.3594 77.061 77.7617 76.5728 78.1133 76.0103C78.293 75.7134 78.543 75.1704 78.8633 74.3813H79.2266ZM85.9414 71.979V79.8306C86.8086 78.8774 87.4961 78.2681 88.0039 78.0024C88.5117 77.729 89.0195 77.5923 89.5273 77.5923C90.1367 77.5923 90.6602 77.7603 91.0977 78.0962C91.5352 78.4321 91.8594 78.9595 92.0703 79.6782C92.2188 80.1782 92.293 81.0923 92.293 82.4204V86.2173C92.293 86.897 92.3477 87.3618 92.457 87.6118C92.5352 87.7993 92.668 87.9478 92.8555 88.0571C93.043 88.1665 93.3867 88.2212 93.8867 88.2212V88.6431H88.6133V88.2212H88.8594C89.3594 88.2212 89.707 88.147 89.9023 87.9985C90.0977 87.8423 90.2344 87.6157 90.3125 87.3188C90.3359 87.1938 90.3477 86.8267 90.3477 86.2173V82.4204C90.3477 81.2485 90.2852 80.479 90.1602 80.1118C90.043 79.7446 89.8516 79.4712 89.5859 79.2915C89.3203 79.104 89 79.0103 88.625 79.0103C88.2422 79.0103 87.8438 79.1118 87.4297 79.3149C87.0156 79.5181 86.5195 79.9282 85.9414 80.5454V86.2173C85.9414 86.9517 85.9805 87.4087 86.0586 87.5884C86.1445 87.7681 86.2969 87.9204 86.5156 88.0454C86.7422 88.1626 87.1289 88.2212 87.6758 88.2212V88.6431H82.3555V88.2212C82.832 88.2212 83.207 88.147 83.4805 87.9985C83.6367 87.9204 83.7617 87.772 83.8555 87.5532C83.9492 87.3345 83.9961 86.8892 83.9961 86.2173V76.5024C83.9961 75.2759 83.9648 74.522 83.9023 74.2407C83.8477 73.9595 83.7578 73.7681 83.6328 73.6665C83.5156 73.5649 83.3555 73.5142 83.1523 73.5142C82.9883 73.5142 82.7227 73.5767 82.3555 73.7017L82.1914 73.2915L85.4023 71.979H85.9414ZM100.039 77.5923C101.664 77.5923 102.969 78.2095 103.953 79.4438C104.789 80.4985 105.207 81.7095 105.207 83.0767C105.207 84.0376 104.977 85.0103 104.516 85.9946C104.055 86.979 103.418 87.7212 102.605 88.2212C101.801 88.7212 100.902 88.9712 99.9102 88.9712C98.293 88.9712 97.0078 88.3267 96.0547 87.0376C95.25 85.9517 94.8477 84.7329 94.8477 83.3813C94.8477 82.397 95.0898 81.4204 95.5742 80.4517C96.0664 79.4751 96.7109 78.7563 97.5078 78.2954C98.3047 77.8267 99.1484 77.5923 100.039 77.5923ZM99.6758 78.354C99.2617 78.354 98.8438 78.479 98.4219 78.729C98.0078 78.9712 97.6719 79.4009 97.4141 80.0181C97.1562 80.6353 97.0273 81.4282 97.0273 82.397C97.0273 83.9595 97.3359 85.3071 97.9531 86.4399C98.5781 87.5728 99.3984 88.1392 100.414 88.1392C101.172 88.1392 101.797 87.8267 102.289 87.2017C102.781 86.5767 103.027 85.5024 103.027 83.979C103.027 82.0728 102.617 80.5728 101.797 79.479C101.242 78.729 100.535 78.354 99.6758 78.354ZM109.918 79.8657C111.176 78.3501 112.375 77.5923 113.516 77.5923C114.102 77.5923 114.605 77.7407 115.027 78.0376C115.449 78.3267 115.785 78.8071 116.035 79.479C116.207 79.9478 116.293 80.6665 116.293 81.6353V86.2173C116.293 86.897 116.348 87.3579 116.457 87.6001C116.543 87.7954 116.68 87.9478 116.867 88.0571C117.062 88.1665 117.418 88.2212 117.934 88.2212V88.6431H112.625V88.2212H112.848C113.348 88.2212 113.695 88.147 113.891 87.9985C114.094 87.8423 114.234 87.6157 114.312 87.3188C114.344 87.2017 114.359 86.8345 114.359 86.2173V81.8228C114.359 80.8462 114.23 80.1392 113.973 79.7017C113.723 79.2563 113.297 79.0337 112.695 79.0337C111.766 79.0337 110.84 79.5415 109.918 80.5571V86.2173C109.918 86.9438 109.961 87.3931 110.047 87.5649C110.156 87.7915 110.305 87.9595 110.492 88.0688C110.688 88.1704 111.078 88.2212 111.664 88.2212V88.6431H106.355V88.2212H106.59C107.137 88.2212 107.504 88.0845 107.691 87.811C107.887 87.5298 107.984 86.9985 107.984 86.2173V82.2329C107.984 80.9438 107.953 80.1587 107.891 79.8774C107.836 79.5962 107.746 79.4048 107.621 79.3032C107.504 79.2017 107.344 79.1509 107.141 79.1509C106.922 79.1509 106.66 79.2095 106.355 79.3267L106.18 78.9048L109.414 77.5923H109.918V79.8657ZM121.344 77.5688C121.703 77.5688 122.008 77.6938 122.258 77.9438C122.516 78.1938 122.645 78.4985 122.645 78.8579C122.645 79.2173 122.516 79.5259 122.258 79.7837C122.008 80.0337 121.703 80.1587 121.344 80.1587C120.984 80.1587 120.676 80.0337 120.418 79.7837C120.168 79.5259 120.043 79.2173 120.043 78.8579C120.043 78.4985 120.168 78.1938 120.418 77.9438C120.676 77.6938 120.984 77.5688 121.344 77.5688ZM119.703 92.6392V92.1235C120.508 91.8579 121.129 91.4438 121.566 90.8813C122.012 90.3267 122.234 89.7368 122.234 89.1118C122.234 88.9634 122.199 88.8384 122.129 88.7368C122.074 88.6665 122.02 88.6313 121.965 88.6313C121.879 88.6313 121.691 88.7095 121.402 88.8657C121.262 88.936 121.113 88.9712 120.957 88.9712C120.574 88.9712 120.27 88.8579 120.043 88.6313C119.816 88.4048 119.703 88.0923 119.703 87.6938C119.703 87.311 119.848 86.9829 120.137 86.7095C120.434 86.436 120.793 86.2993 121.215 86.2993C121.73 86.2993 122.188 86.5259 122.586 86.979C122.992 87.4243 123.195 88.0181 123.195 88.7603C123.195 89.5649 122.914 90.311 122.352 90.9985C121.797 91.6938 120.914 92.2407 119.703 92.6392Z" fill="black"/>
</g>
<defs>
<filter id="filter0_d_14_247" x="0" y="0.643066" width="172" height="112" filterUnits="userSpaceOnUse" color-interpolation-filters="sRGB">
<feFlood flood-opacity="0" result="BackgroundImageFix"/>
<feColorMatrix in="SourceAlpha" type="matrix" values="0 0 0 0 0 0 0 0 0 0 0 0 0 0 0 0 0 0 127 0" result="hardAlpha"/>
<feOffset dy="4"/>
<feGaussianBlur stdDeviation="2"/>
<feComposite in2="hardAlpha" operator="out"/>
<feColorMatrix type="matrix" values="0 0 0 0 0 0 0 0 0 0 0 0 0 0 0 0 0 0 0.25 0"/>
<feBlend mode="normal" in2="BackgroundImageFix" result="effect1_dropShadow_14_247"/>
<feBlend mode="normal" in="SourceGraphic" in2="effect1_dropShadow_14_247" result="shape"/>
</filter>
</defs>
</svg>
