<svg width="150" height="113" viewBox="0 0 150 113" fill="none" xmlns="http://www.w3.org/2000/svg">
<g filter="url(#filter0_d_14_250)">
<rect x="4" y="0.839355" width="142" height="104" rx="20" fill="black" fill-opacity="0.13" shape-rendering="crispEdges"/>
<path d="M32.0469 21.9644C32.8594 21.9644 33.5508 22.2534 34.1211 22.8315C34.6992 23.4019 34.9883 24.0933 34.9883 24.9058C34.9883 25.7183 34.6992 26.4136 34.1211 26.9917C33.5508 27.562 32.8594 27.8472 32.0469 27.8472C31.2344 27.8472 30.5391 27.562 29.9609 26.9917C29.3906 26.4136 29.1055 25.7183 29.1055 24.9058C29.1055 24.0933 29.3906 23.4019 29.9609 22.8315C30.5312 22.2534 31.2266 21.9644 32.0469 21.9644ZM67.0391 16.9487V17.3823C66.4766 17.4839 66.0508 17.6636 65.7617 17.9214C65.3477 18.3042 64.9805 18.8901 64.6602 19.6792L59.1172 33.2026H58.6836L52.7305 19.5034C52.4258 18.8003 52.2109 18.3706 52.0859 18.2144C51.8906 17.9722 51.6484 17.7847 51.3594 17.6519C51.0781 17.5112 50.6953 17.4214 50.2109 17.3823V16.9487H56.7031V17.3823C55.9688 17.4526 55.4922 17.5776 55.2734 17.7573C55.0547 17.937 54.9453 18.1675 54.9453 18.4487C54.9453 18.8394 55.125 19.4487 55.4844 20.2769L59.5273 29.5933L63.2773 20.394C63.6445 19.4878 63.8281 18.8589 63.8281 18.5073C63.8281 18.2808 63.7148 18.0659 63.4883 17.8628C63.2617 17.6519 62.8789 17.5034 62.3398 17.4175C62.3008 17.4097 62.2344 17.3979 62.1406 17.3823V16.9487H67.0391ZM76.0508 22.105V28.6089C76.0508 29.8511 76.0781 30.6128 76.1328 30.894C76.1953 31.1675 76.2891 31.3589 76.4141 31.4683C76.5469 31.5776 76.6992 31.6323 76.8711 31.6323C77.1133 31.6323 77.3867 31.5659 77.6914 31.4331L77.8555 31.8433L74.6445 33.1675H74.1172V30.894C73.1953 31.894 72.4922 32.5229 72.0078 32.7808C71.5234 33.0386 71.0117 33.1675 70.4727 33.1675C69.8711 33.1675 69.3477 32.9956 68.9023 32.6519C68.4648 32.3003 68.1602 31.8511 67.9883 31.3042C67.8164 30.7573 67.7305 29.9839 67.7305 28.9839V24.1909C67.7305 23.6831 67.6758 23.3315 67.5664 23.1362C67.457 22.9409 67.293 22.7925 67.0742 22.6909C66.8633 22.5815 66.4766 22.5308 65.9141 22.5386V22.105H69.6758V29.2886C69.6758 30.2886 69.8477 30.9448 70.1914 31.2573C70.543 31.5698 70.9648 31.7261 71.457 31.7261C71.793 31.7261 72.1719 31.6206 72.5938 31.4097C73.0234 31.1987 73.5312 30.7964 74.1172 30.2026V24.1206C74.1172 23.5112 74.0039 23.1011 73.7773 22.8901C73.5586 22.6714 73.0977 22.5542 72.3945 22.5386V22.105H76.0508ZM80.4453 26.1479C80.4375 27.7417 80.8242 28.9917 81.6055 29.8979C82.3867 30.8042 83.3047 31.2573 84.3594 31.2573C85.0625 31.2573 85.6719 31.0659 86.1875 30.6831C86.7109 30.2925 87.1484 29.6284 87.5 28.6909L87.8633 28.9253C87.6992 29.9956 87.2227 30.9722 86.4336 31.855C85.6445 32.73 84.6562 33.1675 83.4688 33.1675C82.1797 33.1675 81.0742 32.6675 80.1523 31.6675C79.2383 30.6597 78.7812 29.3081 78.7812 27.6128C78.7812 25.7769 79.25 24.3472 80.1875 23.3237C81.1328 22.2925 82.3164 21.7769 83.7383 21.7769C84.9414 21.7769 85.9297 22.1753 86.7031 22.9722C87.4766 23.7612 87.8633 24.8198 87.8633 26.1479H80.4453ZM80.4453 25.4683H85.4141C85.375 24.7808 85.293 24.2964 85.168 24.0151C84.9727 23.5776 84.6797 23.2339 84.2891 22.9839C83.9062 22.7339 83.5039 22.6089 83.082 22.6089C82.4336 22.6089 81.8516 22.8628 81.3359 23.3706C80.8281 23.8706 80.5312 24.5698 80.4453 25.4683ZM91.5547 30.5659C91.9219 30.5659 92.2305 30.6948 92.4805 30.9526C92.7305 31.2026 92.8555 31.5073 92.8555 31.8667C92.8555 32.2261 92.7266 32.5347 92.4688 32.7925C92.2188 33.0425 91.9141 33.1675 91.5547 33.1675C91.1953 33.1675 90.8867 33.0425 90.6289 32.7925C90.3789 32.5347 90.2539 32.2261 90.2539 31.8667C90.2539 31.4995 90.3789 31.1909 90.6289 30.9409C90.8867 30.6909 91.1953 30.5659 91.5547 30.5659ZM98.0234 16.1636C98.3594 16.1636 98.6445 16.2808 98.8789 16.5151C99.1133 16.7495 99.2305 17.0347 99.2305 17.3706C99.2305 17.6987 99.1133 17.98 98.8789 18.2144C98.6445 18.4487 98.3594 18.5659 98.0234 18.5659C97.6953 18.5659 97.4141 18.4487 97.1797 18.2144C96.9453 17.98 96.8281 17.6987 96.8281 17.3706C96.8281 17.0347 96.9453 16.7495 97.1797 16.5151C97.4141 16.2808 97.6953 16.1636 98.0234 16.1636ZM99.0312 21.7886V32.5933C99.0312 34.4292 98.6406 35.7925 97.8594 36.6831C97.0781 37.5737 96.0625 38.019 94.8125 38.019C94.1016 38.019 93.5742 37.8901 93.2305 37.6323C92.8867 37.3745 92.7148 37.1089 92.7148 36.8354C92.7148 36.562 92.8125 36.3276 93.0078 36.1323C93.1953 35.937 93.418 35.8394 93.6758 35.8394C93.8789 35.8394 94.0859 35.8901 94.2969 35.9917C94.4297 36.0464 94.6836 36.2417 95.0586 36.5776C95.4414 36.9214 95.7617 37.0933 96.0195 37.0933C96.207 37.0933 96.3906 37.019 96.5703 36.8706C96.75 36.73 96.8828 36.4878 96.9688 36.144C97.0547 35.8081 97.0977 35.0737 97.0977 33.9409V26.3003C97.0977 25.1206 97.0625 24.3628 96.9922 24.0269C96.9375 23.769 96.8516 23.5933 96.7344 23.4995C96.6172 23.3979 96.457 23.3472 96.2539 23.3472C96.0352 23.3472 95.7695 23.4058 95.457 23.5229L95.293 23.1011L98.5273 21.7886H99.0312ZM108.922 21.7886V25.4448H108.535C108.238 24.2964 107.855 23.5151 107.387 23.1011C106.926 22.687 106.336 22.48 105.617 22.48C105.07 22.48 104.629 22.6245 104.293 22.9136C103.957 23.2026 103.789 23.5229 103.789 23.8745C103.789 24.312 103.914 24.687 104.164 24.9995C104.406 25.3198 104.898 25.6597 105.641 26.019L107.352 26.8511C108.938 27.6245 109.73 28.644 109.73 29.9097C109.73 30.8862 109.359 31.6753 108.617 32.2769C107.883 32.8706 107.059 33.1675 106.145 33.1675C105.488 33.1675 104.738 33.0503 103.895 32.8159C103.637 32.7378 103.426 32.6987 103.262 32.6987C103.082 32.6987 102.941 32.8003 102.84 33.0034H102.453V29.1714H102.84C103.059 30.2651 103.477 31.0894 104.094 31.644C104.711 32.1987 105.402 32.4761 106.168 32.4761C106.707 32.4761 107.145 32.3198 107.48 32.0073C107.824 31.687 107.996 31.3042 107.996 30.8589C107.996 30.3198 107.805 29.8667 107.422 29.4995C107.047 29.1323 106.293 28.6675 105.16 28.105C104.027 27.5425 103.285 27.0347 102.934 26.5815C102.582 26.1362 102.406 25.5737 102.406 24.894C102.406 24.0112 102.707 23.2729 103.309 22.6792C103.918 22.0854 104.703 21.7886 105.664 21.7886C106.086 21.7886 106.598 21.8784 107.199 22.0581C107.598 22.1753 107.863 22.2339 107.996 22.2339C108.121 22.2339 108.219 22.2065 108.289 22.1519C108.359 22.0972 108.441 21.9761 108.535 21.7886H108.922ZM113.891 21.7651C114.25 21.7651 114.555 21.8901 114.805 22.1401C115.062 22.3901 115.191 22.6948 115.191 23.0542C115.191 23.4136 115.062 23.7222 114.805 23.98C114.555 24.23 114.25 24.355 113.891 24.355C113.531 24.355 113.223 24.23 112.965 23.98C112.715 23.7222 112.59 23.4136 112.59 23.0542C112.59 22.6948 112.715 22.3901 112.965 22.1401C113.223 21.8901 113.531 21.7651 113.891 21.7651ZM112.25 36.8354V36.3198C113.055 36.0542 113.676 35.6401 114.113 35.0776C114.559 34.5229 114.781 33.9331 114.781 33.3081C114.781 33.1597 114.746 33.0347 114.676 32.9331C114.621 32.8628 114.566 32.8276 114.512 32.8276C114.426 32.8276 114.238 32.9058 113.949 33.062C113.809 33.1323 113.66 33.1675 113.504 33.1675C113.121 33.1675 112.816 33.0542 112.59 32.8276C112.363 32.6011 112.25 32.2886 112.25 31.8901C112.25 31.5073 112.395 31.1792 112.684 30.9058C112.98 30.6323 113.34 30.4956 113.762 30.4956C114.277 30.4956 114.734 30.7222 115.133 31.1753C115.539 31.6206 115.742 32.2144 115.742 32.9565C115.742 33.7612 115.461 34.5073 114.898 35.1948C114.344 35.8901 113.461 36.437 112.25 36.8354ZM32.0469 49.9644C32.8594 49.9644 33.5508 50.2534 34.1211 50.8315C34.6992 51.4019 34.9883 52.0933 34.9883 52.9058C34.9883 53.7183 34.6992 54.4136 34.1211 54.9917C33.5508 55.562 32.8594 55.8472 32.0469 55.8472C31.2344 55.8472 30.5391 55.562 29.9609 54.9917C29.3906 54.4136 29.1055 53.7183 29.1055 52.9058C29.1055 52.0933 29.3906 51.4019 29.9609 50.8315C30.5312 50.2534 31.2266 49.9644 32.0469 49.9644ZM66.2188 60.8394H61.9766L56.5977 53.4097C56.1992 53.4253 55.875 53.4331 55.625 53.4331C55.5234 53.4331 55.4141 53.4331 55.2969 53.4331C55.1797 53.4253 55.0586 53.4175 54.9336 53.4097V58.0269C54.9336 59.0269 55.043 59.6479 55.2617 59.8901C55.5586 60.2339 56.0039 60.4058 56.5977 60.4058H57.2188V60.8394H50.4102V60.4058H51.0078C51.6797 60.4058 52.1602 60.187 52.4492 59.7495C52.6133 59.5073 52.6953 58.9331 52.6953 58.0269V47.7612C52.6953 46.7612 52.5859 46.1401 52.3672 45.8979C52.0625 45.5542 51.6094 45.3823 51.0078 45.3823H50.4102V44.9487H56.1992C57.8867 44.9487 59.1289 45.0737 59.9258 45.3237C60.7305 45.5659 61.4102 46.019 61.9648 46.6831C62.5273 47.3394 62.8086 48.1245 62.8086 49.0386C62.8086 50.0151 62.4883 50.8628 61.8477 51.5815C61.2148 52.3003 60.2305 52.8081 58.8945 53.105L62.1758 57.6636C62.9258 58.7104 63.5703 59.4058 64.1094 59.7495C64.6484 60.0933 65.3516 60.312 66.2188 60.4058V60.8394ZM54.9336 52.6714C55.082 52.6714 55.2109 52.6753 55.3203 52.6831C55.4297 52.6831 55.5195 52.6831 55.5898 52.6831C57.1055 52.6831 58.2461 52.355 59.0117 51.6987C59.7852 51.0425 60.1719 50.2065 60.1719 49.1909C60.1719 48.1987 59.8594 47.394 59.2344 46.7769C58.6172 46.1519 57.7969 45.8394 56.7734 45.8394C56.3203 45.8394 55.707 45.9136 54.9336 46.062V52.6714ZM68.5625 54.1479C68.5547 55.7417 68.9414 56.9917 69.7227 57.8979C70.5039 58.8042 71.4219 59.2573 72.4766 59.2573C73.1797 59.2573 73.7891 59.0659 74.3047 58.6831C74.8281 58.2925 75.2656 57.6284 75.6172 56.6909L75.9805 56.9253C75.8164 57.9956 75.3398 58.9722 74.5508 59.855C73.7617 60.73 72.7734 61.1675 71.5859 61.1675C70.2969 61.1675 69.1914 60.6675 68.2695 59.6675C67.3555 58.6597 66.8984 57.3081 66.8984 55.6128C66.8984 53.7769 67.3672 52.3472 68.3047 51.3237C69.25 50.2925 70.4336 49.7769 71.8555 49.7769C73.0586 49.7769 74.0469 50.1753 74.8203 50.9722C75.5938 51.7612 75.9805 52.8198 75.9805 54.1479H68.5625ZM68.5625 53.4683H73.5312C73.4922 52.7808 73.4102 52.2964 73.2852 52.0151C73.0898 51.5776 72.7969 51.2339 72.4062 50.9839C72.0234 50.7339 71.6211 50.6089 71.1992 50.6089C70.5508 50.6089 69.9688 50.8628 69.4531 51.3706C68.9453 51.8706 68.6484 52.5698 68.5625 53.4683ZM83.5039 59.2925C82.4023 60.144 81.7109 60.6362 81.4297 60.769C81.0078 60.9644 80.5586 61.062 80.082 61.062C79.3398 61.062 78.7266 60.8081 78.2422 60.3003C77.7656 59.7925 77.5273 59.1245 77.5273 58.2964C77.5273 57.7729 77.6445 57.3198 77.8789 56.937C78.1992 56.4058 78.7539 55.9058 79.543 55.437C80.3398 54.9683 81.6602 54.3979 83.5039 53.7261V53.3042C83.5039 52.2339 83.332 51.4995 82.9883 51.1011C82.6523 50.7026 82.1602 50.5034 81.5117 50.5034C81.0195 50.5034 80.6289 50.6362 80.3398 50.9019C80.043 51.1675 79.8945 51.4722 79.8945 51.8159L79.918 52.4956C79.918 52.855 79.8242 53.1323 79.6367 53.3276C79.457 53.5229 79.2188 53.6206 78.9219 53.6206C78.6328 53.6206 78.3945 53.519 78.207 53.3159C78.0273 53.1128 77.9375 52.8354 77.9375 52.4839C77.9375 51.812 78.2812 51.1948 78.9688 50.6323C79.6562 50.0698 80.6211 49.7886 81.8633 49.7886C82.8164 49.7886 83.5977 49.9487 84.207 50.269C84.668 50.5112 85.0078 50.8901 85.2266 51.4058C85.3672 51.7417 85.4375 52.4292 85.4375 53.4683V57.1128C85.4375 58.1362 85.457 58.7651 85.4961 58.9995C85.5352 59.2261 85.5977 59.3784 85.6836 59.4565C85.7773 59.5347 85.8828 59.5737 86 59.5737C86.125 59.5737 86.2344 59.5464 86.3281 59.4917C86.4922 59.3901 86.8086 59.105 87.2773 58.6362V59.2925C86.4023 60.4644 85.5664 61.0503 84.7695 61.0503C84.3867 61.0503 84.082 60.9175 83.8555 60.6519C83.6289 60.3862 83.5117 59.9331 83.5039 59.2925ZM83.5039 58.5308V54.4409C82.3242 54.9097 81.5625 55.2417 81.2188 55.437C80.6016 55.7808 80.1602 56.1401 79.8945 56.5151C79.6289 56.8901 79.4961 57.3003 79.4961 57.7456C79.4961 58.3081 79.6641 58.7769 80 59.1519C80.3359 59.519 80.7227 59.7026 81.1602 59.7026C81.7539 59.7026 82.5352 59.312 83.5039 58.5308ZM97.2031 56.7612C96.9141 58.1753 96.3477 59.2651 95.5039 60.0308C94.6602 60.7886 93.7266 61.1675 92.7031 61.1675C91.4844 61.1675 90.4219 60.6558 89.5156 59.6323C88.6094 58.6089 88.1562 57.2261 88.1562 55.4839C88.1562 53.7964 88.6562 52.4253 89.6562 51.3706C90.6641 50.3159 91.8711 49.7886 93.2773 49.7886C94.332 49.7886 95.1992 50.0698 95.8789 50.6323C96.5586 51.187 96.8984 51.7651 96.8984 52.3667C96.8984 52.6636 96.8008 52.9058 96.6055 53.0933C96.418 53.2729 96.1523 53.3628 95.8086 53.3628C95.3477 53.3628 95 53.2144 94.7656 52.9175C94.6328 52.7534 94.543 52.4409 94.4961 51.98C94.457 51.519 94.3008 51.1675 94.0273 50.9253C93.7539 50.6909 93.375 50.5737 92.8906 50.5737C92.1094 50.5737 91.4805 50.8628 91.0039 51.4409C90.3711 52.2065 90.0547 53.2183 90.0547 54.4761C90.0547 55.7573 90.3672 56.8901 90.9922 57.8745C91.625 58.8511 92.4766 59.3394 93.5469 59.3394C94.3125 59.3394 95 59.0776 95.6094 58.5542C96.0391 58.1948 96.457 57.5425 96.8633 56.5972L97.2031 56.7612ZM101.867 46.5776V50.105H104.375V50.9253H101.867V57.8862C101.867 58.5815 101.965 59.0503 102.16 59.2925C102.363 59.5347 102.621 59.6558 102.934 59.6558C103.191 59.6558 103.441 59.5776 103.684 59.4214C103.926 59.2573 104.113 59.019 104.246 58.7065H104.703C104.43 59.4722 104.043 60.0503 103.543 60.4409C103.043 60.8237 102.527 61.0151 101.996 61.0151C101.637 61.0151 101.285 60.9175 100.941 60.7222C100.598 60.519 100.344 60.2339 100.18 59.8667C100.016 59.4917 99.9336 58.9175 99.9336 58.144V50.9253H98.2344V50.5386C98.6641 50.3667 99.1016 50.0776 99.5469 49.6714C100 49.2573 100.402 48.769 100.754 48.2065C100.934 47.9097 101.184 47.3667 101.504 46.5776H101.867ZM107.984 49.7651C108.344 49.7651 108.648 49.8901 108.898 50.1401C109.156 50.3901 109.285 50.6948 109.285 51.0542C109.285 51.4136 109.156 51.7222 108.898 51.98C108.648 52.23 108.344 52.355 107.984 52.355C107.625 52.355 107.316 52.23 107.059 51.98C106.809 51.7222 106.684 51.4136 106.684 51.0542C106.684 50.6948 106.809 50.3901 107.059 50.1401C107.316 49.8901 107.625 49.7651 107.984 49.7651ZM106.344 64.8354V64.3198C107.148 64.0542 107.77 63.6401 108.207 63.0776C108.652 62.5229 108.875 61.9331 108.875 61.3081C108.875 61.1597 108.84 61.0347 108.77 60.9331C108.715 60.8628 108.66 60.8276 108.605 60.8276C108.52 60.8276 108.332 60.9058 108.043 61.062C107.902 61.1323 107.754 61.1675 107.598 61.1675C107.215 61.1675 106.91 61.0542 106.684 60.8276C106.457 60.6011 106.344 60.2886 106.344 59.8901C106.344 59.5073 106.488 59.1792 106.777 58.9058C107.074 58.6323 107.434 58.4956 107.855 58.4956C108.371 58.4956 108.828 58.7222 109.227 59.1753C109.633 59.6206 109.836 60.2144 109.836 60.9565C109.836 61.7612 109.555 62.5073 108.992 63.1948C108.438 63.8901 107.555 64.437 106.344 64.8354ZM32.0469 77.9644C32.8594 77.9644 33.5508 78.2534 34.1211 78.8315C34.6992 79.4019 34.9883 80.0933 34.9883 80.9058C34.9883 81.7183 34.6992 82.4136 34.1211 82.9917C33.5508 83.562 32.8594 83.8472 32.0469 83.8472C31.2344 83.8472 30.5391 83.562 29.9609 82.9917C29.3906 82.4136 29.1055 81.7183 29.1055 80.9058C29.1055 80.0933 29.3906 79.4019 29.9609 78.8315C30.5312 78.2534 31.2266 77.9644 32.0469 77.9644ZM60.9805 83.519H54.8281L53.75 86.0269C53.4844 86.644 53.3516 87.105 53.3516 87.4097C53.3516 87.6519 53.4648 87.8667 53.6914 88.0542C53.9258 88.2339 54.4258 88.3511 55.1914 88.4058V88.8394H50.1875V88.4058C50.8516 88.2886 51.2812 88.1362 51.4766 87.9487C51.875 87.5737 52.3164 86.812 52.8008 85.6636L58.3906 72.5854H58.8008L64.332 85.8042C64.7773 86.8667 65.1797 87.5581 65.5391 87.8784C65.9062 88.1909 66.4141 88.3667 67.0625 88.4058V88.8394H60.793V88.4058C61.4258 88.3745 61.8516 88.269 62.0703 88.0894C62.2969 87.9097 62.4102 87.6909 62.4102 87.4331C62.4102 87.0894 62.2539 86.5464 61.9414 85.8042L60.9805 83.519ZM60.6523 82.6519L57.957 76.23L55.1914 82.6519H60.6523ZM71.2227 80.062C72.4805 78.5464 73.6797 77.7886 74.8203 77.7886C75.4062 77.7886 75.9102 77.937 76.332 78.2339C76.7539 78.5229 77.0898 79.0034 77.3398 79.6753C77.5117 80.144 77.5977 80.8628 77.5977 81.8315V86.4136C77.5977 87.0933 77.6523 87.5542 77.7617 87.7964C77.8477 87.9917 77.9844 88.144 78.1719 88.2534C78.3672 88.3628 78.7227 88.4175 79.2383 88.4175V88.8394H73.9297V88.4175H74.1523C74.6523 88.4175 75 88.3433 75.1953 88.1948C75.3984 88.0386 75.5391 87.812 75.6172 87.5151C75.6484 87.3979 75.6641 87.0308 75.6641 86.4136V82.019C75.6641 81.0425 75.5352 80.3354 75.2773 79.8979C75.0273 79.4526 74.6016 79.23 74 79.23C73.0703 79.23 72.1445 79.7378 71.2227 80.7534V86.4136C71.2227 87.1401 71.2656 87.5894 71.3516 87.7612C71.4609 87.9878 71.6094 88.1558 71.7969 88.2651C71.9922 88.3667 72.3828 88.4175 72.9688 88.4175V88.8394H67.6602V88.4175H67.8945C68.4414 88.4175 68.8086 88.2808 68.9961 88.0073C69.1914 87.7261 69.2891 87.1948 69.2891 86.4136V82.4292C69.2891 81.1401 69.2578 80.355 69.1953 80.0737C69.1406 79.7925 69.0508 79.6011 68.9258 79.4995C68.8086 79.3979 68.6484 79.3472 68.4453 79.3472C68.2266 79.3472 67.9648 79.4058 67.6602 79.5229L67.4844 79.1011L70.7188 77.7886H71.2227V80.062ZM82.9648 84.9253C82.3086 84.605 81.8047 84.1597 81.4531 83.5894C81.1016 83.0112 80.9258 82.3745 80.9258 81.6792C80.9258 80.6167 81.3242 79.7026 82.1211 78.937C82.9258 78.1714 83.9531 77.7886 85.2031 77.7886C86.2266 77.7886 87.1133 78.0386 87.8633 78.5386H90.1367C90.4727 78.5386 90.668 78.5503 90.7227 78.5737C90.7773 78.5894 90.8164 78.6206 90.8398 78.6675C90.8867 78.7378 90.9102 78.8628 90.9102 79.0425C90.9102 79.2456 90.8906 79.3862 90.8516 79.4644C90.8281 79.5034 90.7852 79.5347 90.7227 79.5581C90.668 79.5815 90.4727 79.5933 90.1367 79.5933H88.7422C89.1797 80.1558 89.3984 80.8745 89.3984 81.7495C89.3984 82.7495 89.0156 83.605 88.25 84.3159C87.4844 85.0269 86.457 85.3823 85.168 85.3823C84.6367 85.3823 84.0938 85.3042 83.5391 85.1479C83.1953 85.4448 82.9609 85.7065 82.8359 85.9331C82.7188 86.1519 82.6602 86.3394 82.6602 86.4956C82.6602 86.6284 82.7227 86.7573 82.8477 86.8823C82.9805 87.0073 83.2344 87.0972 83.6094 87.1519C83.8281 87.1831 84.375 87.2104 85.25 87.2339C86.8594 87.2729 87.9023 87.3276 88.3789 87.3979C89.1055 87.4995 89.6836 87.769 90.1133 88.2065C90.5508 88.644 90.7695 89.1831 90.7695 89.8237C90.7695 90.7065 90.3555 91.5347 89.5273 92.3081C88.3086 93.4487 86.7188 94.019 84.7578 94.019C83.25 94.019 81.9766 93.6792 80.9375 92.9995C80.3516 92.6089 80.0586 92.2026 80.0586 91.7808C80.0586 91.5933 80.1016 91.4058 80.1875 91.2183C80.3203 90.9292 80.5938 90.5269 81.0078 90.0112C81.0625 89.9409 81.4609 89.519 82.2031 88.7456C81.7969 88.5034 81.5078 88.2886 81.3359 88.1011C81.1719 87.9058 81.0898 87.687 81.0898 87.4448C81.0898 87.1714 81.1992 86.8511 81.418 86.4839C81.6445 86.1167 82.1602 85.5972 82.9648 84.9253ZM85.0039 78.3511C84.4258 78.3511 83.9414 78.5815 83.5508 79.0425C83.1602 79.5034 82.9648 80.2104 82.9648 81.1636C82.9648 82.3979 83.2305 83.355 83.7617 84.0347C84.168 84.5503 84.6836 84.8081 85.3086 84.8081C85.9023 84.8081 86.3906 84.5854 86.7734 84.1401C87.1562 83.6948 87.3477 82.9956 87.3477 82.0425C87.3477 80.8003 87.0781 79.8276 86.5391 79.1245C86.1406 78.6089 85.6289 78.3511 85.0039 78.3511ZM82.8477 88.8394C82.4805 89.2378 82.2031 89.6089 82.0156 89.9526C81.8281 90.2964 81.7344 90.6128 81.7344 90.9019C81.7344 91.2769 81.9609 91.605 82.4141 91.8862C83.1953 92.3706 84.3242 92.6128 85.8008 92.6128C87.207 92.6128 88.2422 92.3628 88.9062 91.8628C89.5781 91.3706 89.9141 90.8433 89.9141 90.2808C89.9141 89.8745 89.7148 89.5854 89.3164 89.4136C88.9102 89.2417 88.1055 89.1401 86.9023 89.1089C85.1445 89.062 83.793 88.9722 82.8477 88.8394ZM101.504 78.105V84.6089C101.504 85.8511 101.531 86.6128 101.586 86.894C101.648 87.1675 101.742 87.3589 101.867 87.4683C102 87.5776 102.152 87.6323 102.324 87.6323C102.566 87.6323 102.84 87.5659 103.145 87.4331L103.309 87.8433L100.098 89.1675H99.5703V86.894C98.6484 87.894 97.9453 88.5229 97.4609 88.7808C96.9766 89.0386 96.4648 89.1675 95.9258 89.1675C95.3242 89.1675 94.8008 88.9956 94.3555 88.6519C93.918 88.3003 93.6133 87.8511 93.4414 87.3042C93.2695 86.7573 93.1836 85.9839 93.1836 84.9839V80.1909C93.1836 79.6831 93.1289 79.3315 93.0195 79.1362C92.9102 78.9409 92.7461 78.7925 92.5273 78.6909C92.3164 78.5815 91.9297 78.5308 91.3672 78.5386V78.105H95.1289V85.2886C95.1289 86.2886 95.3008 86.9448 95.6445 87.2573C95.9961 87.5698 96.418 87.7261 96.9102 87.7261C97.2461 87.7261 97.625 87.6206 98.0469 87.4097C98.4766 87.1987 98.9844 86.7964 99.5703 86.2026V80.1206C99.5703 79.5112 99.457 79.1011 99.2305 78.8901C99.0117 78.6714 98.5508 78.5542 97.8477 78.5386V78.105H101.504ZM107.785 72.1753V86.4136C107.785 87.0854 107.832 87.5308 107.926 87.7495C108.027 87.9683 108.18 88.1362 108.383 88.2534C108.586 88.3628 108.965 88.4175 109.52 88.4175V88.8394H104.258V88.4175C104.75 88.4175 105.086 88.3667 105.266 88.2651C105.445 88.1636 105.586 87.9956 105.688 87.7612C105.789 87.5269 105.84 87.0776 105.84 86.4136V76.6636C105.84 75.4526 105.812 74.7104 105.758 74.437C105.703 74.1558 105.613 73.9644 105.488 73.8628C105.371 73.7612 105.219 73.7104 105.031 73.7104C104.828 73.7104 104.57 73.7729 104.258 73.8979L104.059 73.4878L107.258 72.1753H107.785ZM116.855 87.2925C115.754 88.144 115.062 88.6362 114.781 88.769C114.359 88.9644 113.91 89.062 113.434 89.062C112.691 89.062 112.078 88.8081 111.594 88.3003C111.117 87.7925 110.879 87.1245 110.879 86.2964C110.879 85.7729 110.996 85.3198 111.23 84.937C111.551 84.4058 112.105 83.9058 112.895 83.437C113.691 82.9683 115.012 82.3979 116.855 81.7261V81.3042C116.855 80.2339 116.684 79.4995 116.34 79.1011C116.004 78.7026 115.512 78.5034 114.863 78.5034C114.371 78.5034 113.98 78.6362 113.691 78.9019C113.395 79.1675 113.246 79.4722 113.246 79.8159L113.27 80.4956C113.27 80.855 113.176 81.1323 112.988 81.3276C112.809 81.5229 112.57 81.6206 112.273 81.6206C111.984 81.6206 111.746 81.519 111.559 81.3159C111.379 81.1128 111.289 80.8354 111.289 80.4839C111.289 79.812 111.633 79.1948 112.32 78.6323C113.008 78.0698 113.973 77.7886 115.215 77.7886C116.168 77.7886 116.949 77.9487 117.559 78.269C118.02 78.5112 118.359 78.8901 118.578 79.4058C118.719 79.7417 118.789 80.4292 118.789 81.4683V85.1128C118.789 86.1362 118.809 86.7651 118.848 86.9995C118.887 87.2261 118.949 87.3784 119.035 87.4565C119.129 87.5347 119.234 87.5737 119.352 87.5737C119.477 87.5737 119.586 87.5464 119.68 87.4917C119.844 87.3901 120.16 87.105 120.629 86.6362V87.2925C119.754 88.4644 118.918 89.0503 118.121 89.0503C117.738 89.0503 117.434 88.9175 117.207 88.6519C116.98 88.3862 116.863 87.9331 116.855 87.2925ZM116.855 86.5308V82.4409C115.676 82.9097 114.914 83.2417 114.57 83.437C113.953 83.7808 113.512 84.1401 113.246 84.5151C112.98 84.8901 112.848 85.3003 112.848 85.7456C112.848 86.3081 113.016 86.7769 113.352 87.1519C113.688 87.519 114.074 87.7026 114.512 87.7026C115.105 87.7026 115.887 87.312 116.855 86.5308ZM124.578 77.7886V80.2026C125.477 78.5933 126.398 77.7886 127.344 77.7886C127.773 77.7886 128.129 77.9214 128.41 78.187C128.691 78.4448 128.832 78.7456 128.832 79.0894C128.832 79.394 128.73 79.6519 128.527 79.8628C128.324 80.0737 128.082 80.1792 127.801 80.1792C127.527 80.1792 127.219 80.0464 126.875 79.7808C126.539 79.5073 126.289 79.3706 126.125 79.3706C125.984 79.3706 125.832 79.4487 125.668 79.605C125.316 79.9253 124.953 80.4526 124.578 81.187V86.3315C124.578 86.9253 124.652 87.3745 124.801 87.6792C124.902 87.8901 125.082 88.0659 125.34 88.2065C125.598 88.3472 125.969 88.4175 126.453 88.4175V88.8394H120.957V88.4175C121.504 88.4175 121.91 88.3315 122.176 88.1597C122.371 88.0347 122.508 87.8354 122.586 87.562C122.625 87.4292 122.645 87.0503 122.645 86.4253V82.2651C122.645 81.0151 122.617 80.2729 122.562 80.0386C122.516 79.7964 122.422 79.6206 122.281 79.5112C122.148 79.4019 121.98 79.3472 121.777 79.3472C121.535 79.3472 121.262 79.4058 120.957 79.5229L120.84 79.1011L124.086 77.7886H124.578ZM131.984 77.7651C132.344 77.7651 132.648 77.8901 132.898 78.1401C133.156 78.3901 133.285 78.6948 133.285 79.0542C133.285 79.4136 133.156 79.7222 132.898 79.98C132.648 80.23 132.344 80.355 131.984 80.355C131.625 80.355 131.316 80.23 131.059 79.98C130.809 79.7222 130.684 79.4136 130.684 79.0542C130.684 78.6948 130.809 78.3901 131.059 78.1401C131.316 77.8901 131.625 77.7651 131.984 77.7651ZM130.344 92.8354V92.3198C131.148 92.0542 131.77 91.6401 132.207 91.0776C132.652 90.5229 132.875 89.9331 132.875 89.3081C132.875 89.1597 132.84 89.0347 132.77 88.9331C132.715 88.8628 132.66 88.8276 132.605 88.8276C132.52 88.8276 132.332 88.9058 132.043 89.062C131.902 89.1323 131.754 89.1675 131.598 89.1675C131.215 89.1675 130.91 89.0542 130.684 88.8276C130.457 88.6011 130.344 88.2886 130.344 87.8901C130.344 87.5073 130.488 87.1792 130.777 86.9058C131.074 86.6323 131.434 86.4956 131.855 86.4956C132.371 86.4956 132.828 86.7222 133.227 87.1753C133.633 87.6206 133.836 88.2144 133.836 88.9565C133.836 89.7612 133.555 90.5073 132.992 91.1948C132.438 91.8901 131.555 92.437 130.344 92.8354Z" fill="black"/>
</g>
<defs>
<filter id="filter0_d_14_250" x="0" y="0.839355" width="150" height="112" filterUnits="userSpaceOnUse" color-interpolation-filters="sRGB">
<feFlood flood-opacity="0" result="BackgroundImageFix"/>
<feColorMatrix in="SourceAlpha" type="matrix" values="0 0 0 0 0 0 0 0 0 0 0 0 0 0 0 0 0 0 127 0" result="hardAlpha"/>
<feOffset dy="4"/>
<feGaussianBlur stdDeviation="2"/>
<feComposite in2="hardAlpha" operator="out"/>
<feColorMatrix type="matrix" values="0 0 0 0 0 0 0 0 0 0 0 0 0 0 0 0 0 0 0.25 0"/>
<feBlend mode="normal" in2="BackgroundImageFix" result="effect1_dropShadow_14_250"/>
<feBlend mode="normal" in="SourceGraphic" in2="effect1_dropShadow_14_250" result="shape"/>
</filter>
</defs>
</svg>
